SplineFontDB: 3.0
FontName: Besley-it-BoldItalic
FullName: Besley* Bold Italic
FamilyName: Besley*
Weight: Bold
Copyright: Copyright (c) 2017, Owen Earl,,, (EwonRael@yahoo.com)
Version: 001.000
ItalicAngle: -13
UnderlinePosition: -100
UnderlineWidth: 50
Ascent: 800
Descent: 200
InvalidEm: 0
LayerCount: 2
Layer: 0 0 "Back" 1
Layer: 1 0 "Fore" 0
XUID: [1021 31 -699969567 16487490]
FSType: 0
OS2Version: 0
OS2_WeightWidthSlopeOnly: 0
OS2_UseTypoMetrics: 1
CreationTime: 1460762150
ModificationTime: 1495819168
PfmFamily: 17
TTFWeight: 700
TTFWidth: 5
LineGap: 90
VLineGap: 0
OS2TypoAscent: 800
OS2TypoAOffset: 0
OS2TypoDescent: -200
OS2TypoDOffset: 0
OS2TypoLinegap: 90
OS2WinAscent: 1310
OS2WinAOffset: 0
OS2WinDescent: 830
OS2WinDOffset: 0
HheadAscent: 1310
HheadAOffset: 0
HheadDescent: -830
HheadDOffset: 0
OS2CapHeight: 750
OS2XHeight: 520
OS2FamilyClass: 1024
OS2Vendor: 'PfEd'
OS2UnicodeRanges: 00000001.00000000.00000000.00000000
Lookup: 5 0 0 "'calt' Contextual Alternates lookup 1" { "'calt' Contextual Alternates lookup 1-1"  } ['calt' ('DFLT' <'dflt' > 'grek' <'dflt' > 'latn' <'dflt' > ) ]
Lookup: 1 0 0 "'ss01' Style Set 1 lookup 2" { "'ss01' Style Set 1 lookup 2-1"  } ['ss01' ('DFLT' <'dflt' > 'grek' <'dflt' > 'latn' <'dflt' > ) ]
Lookup: 4 0 1 "'liga' Standard Ligatures lookup 0" { "Not your mama's contextual ligatures"  } ['liga' ('DFLT' <'dflt' > 'grek' <'dflt' > 'latn' <'dflt' > ) ]
Lookup: 258 0 0 "Kern like there's no tomorrow" { "Get it right" [150,0,5] } ['kern' ('DFLT' <'dflt' > 'grek' <'dflt' > 'latn' <'dflt' > ) ]
MarkAttachClasses: 1
DEI: 91125
KernClass2: 17 15 "Get it right"
 13 backslash A L
 3 B S
 5 D O Q
 1 E
 3 F P
 5 G g r
 7 H I M N
 3 J U
 5 K X Z
 3 T Y
 9 a h m n u
 15 b c e o p v w y
 5 d i l
 1 f
 7 k x z t
 9 slash W V
 3 A J
 23 B D E F H I K L M N P R
 7 C G O Q
 3 T Y
 1 U
 3 V W
 3 X Z
 13 a c d e o q s
 5 b l t
 19 f m n p r u y w i j
 3 h k
 1 v
 3 x z
 12 period comma

StartChar: ampersand
Encoding: 38 38 0
Width: 880
Flags: HMW
LayerCount: 2
Back
SplineSet
673 334 m 4
 638 334 614 368 614 406 c 4
 614 446 650 489 709 489 c 5
 719 350 l 5
 710 350 707 334 673 334 c 4
265 65 m 5
 507 65 726 271 726 329 c 4
 726 345 724 350 719 350 c 5
 709 489 l 5
 777 489 810 436 810 375 c 4
 810 235 505 -10 230 -10 c 5
 265 65 l 5
1 160 m 5
 1 490 542 415 542 655 c 5
 676 655 l 5
 676 407 171 460 171 180 c 5
 1 160 l 5
230 -10 m 5
 87 -10 1 57 1 160 c 5
 171 180 l 5
 171 108 201 65 265 65 c 5
 230 -10 l 5
412 91 m 6
 265 470 l 6
 248 512 239 548 239 583 c 4
 239 683 354 765 500 765 c 4
 607 765 676 729 676 655 c 5
 542 655 l 5
 542 692 532 715 489 715 c 4
 422 715 384 673 384 620 c 4
 384 585 396 540 423 470 c 6
 562 110 l 6
 577.51953125 69.583984375 588 57 628 57 c 4
 659 57 678 75 698 110 c 5
 740 80 l 5
 725 36 660 -30 571 -30 c 4
 498 -30 451.811523438 -11.642578125 412 91 c 6
EndSplineSet
Fore
SplineSet
663 334 m 0
 618 334 594 368 594 416 c 0
 594 466 650 509 719 509 c 1
 709 350 l 1
 700 350 697 334 663 334 c 0
285 90 m 1
 527 90 716 271 716 329 c 0
 716 345 714 350 709 350 c 1
 719 509 l 1
 807 509 830 436 830 375 c 0
 830 215 525 -15 230 -15 c 1
 285 90 l 1
1 160 m 1
 1 490 522 395 522 655 c 1
 696 655 l 1
 696 407 191 480 191 190 c 1
 1 160 l 1
230 -15 m 1
 87 -15 1 57 1 160 c 1
 191 190 l 1
 191 128 231 90 285 90 c 1
 230 -15 l 1
432 91 m 2
 245 470 l 2
 228 512 219 548 219 583 c 4
 219 703 354 770 500 770 c 0
 607 770 696 729 696 655 c 1
 522 655 l 1
 522 692 516 710 483 710 c 0
 446 710 404 673 404 620 c 0
 404 585 416 540 443 470 c 2
 612 120 l 2
 627.51953125 79.583984375 644 71 684 71 c 0
 705 71 734 89 754 124 c 1
 820 80 l 1
 775 6 710 -35 611 -35 c 4
 538 -35 471.811523438 -11.642578125 432 91 c 2
EndSplineSet
EndChar

StartChar: period
Encoding: 46 46 1
Width: 265
Flags: HMW
LayerCount: 2
Back
SplineSet
40 50 m 4
 40 83 67 110 100 110 c 4
 133 110 160 83 160 50 c 4
 160 17 133 -10 100 -10 c 4
 67 -10 40 17 40 50 c 4
EndSplineSet
Fore
SplineSet
-35 80 m 0
 -35 135 10 180 65 180 c 0
 120 180 165 135 165 80 c 0
 165 25 120 -20 65 -20 c 0
 10 -20 -35 25 -35 80 c 0
EndSplineSet
EndChar

StartChar: zero
Encoding: 48 48 2
Width: 530
Flags: HMW
LayerCount: 2
Back
SplineSet
145 280 m 4
 110 128 126 40 210 40 c 4
 304 40 350 128 385 280 c 4
 420 432 414 520 320 520 c 4
 236 520 180 432 145 280 c 4
35 280 m 4
 80 473 209 570 332 570 c 4
 465 570 540 473 495 280 c 4
 450 87 311 -10 198 -10 c 4
 75 -10 -10 87 35 280 c 4
EndSplineSet
Fore
SplineSet
195 180 m 4
 195 108 200 60 225 60 c 0
 279 60 335 258 335 380 c 4
 335 462 334 500 305 500 c 0
 241 500 195 302 195 180 c 4
15 190 m 0
 15 403 152 580 325 580 c 0
 418 580 515 523 515 370 c 0
 515 147 368 -20 205 -20 c 0
 122 -20 15 47 15 190 c 0
EndSplineSet
EndChar

StartChar: one
Encoding: 49 49 3
Width: 530
VWidth: 1155
Flags: HMW
LayerCount: 2
Back
SplineSet
111 465 m 21
 227 465 265 468 343 590 c 13
 314 465 l 5
 111 465 l 21
314 465 m 5
 343 590 l 5
 388 590 l 5
 359 465 l 5
 314 465 l 5
111 465 m 5
 359 465 l 5
 347 410 l 5
 99 410 l 5
 111 465 l 5
-0 55 m 5
 170 55 l 5
 157 0 l 5
 -13 0 l 5
 -0 55 l 5
265 55 m 5
 425 55 l 5
 412 0 l 5
 252 0 l 5
 265 55 l 5
254 420 m 5
 349 420 l 5
 252 0 l 5
 157 0 l 5
 254 420 l 5
EndSplineSet
Fore
SplineSet
132 465 m 17
 198 465 295 468 375 590 c 9
 375 465 l 1
 132 465 l 17
325 465 m 1
 375 590 l 1
 440 590 l 1
 390 465 l 1
 325 465 l 1
92 465 m 1
 370 465 l 1
 370 375 l 1
 92 375 l 1
 92 465 l 1
5 100 m 5
 205 100 l 5
 205 0 l 1
 5 0 l 1
 5 100 l 5
270 100 m 1
 450 100 l 1
 450 0 l 1
 270 0 l 1
 270 100 l 1
234 450 m 1
 440 590 l 1
 300 0 l 1
 125 0 l 1
 234 450 l 1
EndSplineSet
EndChar

StartChar: two
Encoding: 50 50 4
Width: 530
VWidth: 1155
Flags: HMW
LayerCount: 2
Back
SplineSet
179 473 m 5
 179 455 222 456 222 398 c 4
 222 351 182 320 145 320 c 4
 106 320 61 348 61 406 c 5
 179 473 l 5
472 157 m 5
 442 22 379 -35 280 -35 c 4
 173 -35 148 30 85 30 c 4
 44 30 19 10 9 -20 c 5
 -20 -15 l 5
 0 59 77 123 160 123 c 4
 240 123 251 83 317 83 c 4
 370 83 398 105 408 157 c 5
 472 157 l 5
61 406 m 5
 61 508 190 575 322 575 c 4
 433 575 518 530 518 430 c 5
 377 440 l 5
 377 494 353 518 294 518 c 4
 250 518 179 498 179 473 c 5
 61 406 l 5
232 269 m 4
 334.8359375 312.935546875 377 376 377 440 c 5
 518 430 l 5
 518 320 410.857421875 254.379882812 247 205 c 4
 140.1171875 172.790039062 4 80 4 -20 c 5
 -48 -20 l 5
 -17 137 114.060546875 218.611328125 232 269 c 4
EndSplineSet
Fore
SplineSet
194 473 m 1
 194 455 242 456 242 398 c 0
 242 341 192 300 145 300 c 0
 96 300 51 338 51 406 c 1
 194 473 l 1
492 197 m 5
 462 62 399 -40 280 -40 c 4
 173 -40 148 30 85 30 c 4
 44 30 19 10 9 -20 c 5
 -20 -15 l 5
 0 59 117 163 200 163 c 4
 250 163 286 123 332 123 c 4
 375 123 408 145 418 197 c 5
 492 197 l 5
51 406 m 1
 51 518 190 580 322 580 c 0
 433 580 523 530 523 430 c 1
 342 450 l 1
 342 492 313 508 274 508 c 0
 240 508 194 498 194 473 c 1
 51 406 l 1
222 269 m 0
 324.8359375 322.935546875 342 406 342 450 c 1
 523 430 l 1
 523 320 410.857421875 244.379882812 247 195 c 0
 140.1171875 162.790039062 4 80 4 -20 c 1
 -48 -20 l 1
 -17 137 108.420898438 209.4296875 222 269 c 0
EndSplineSet
EndChar

StartChar: three
Encoding: 51 51 5
Width: 530
VWidth: 1155
Flags: HMW
LayerCount: 2
Back
SplineSet
435 90 m 5
 334 90 l 5
 334 174 281 211 172 211 c 5
 172 245 l 5
 353 245 435 200 435 90 c 5
70 412 m 5
 70 494 174 570 316 570 c 4
 407 570 495 531 495 431 c 5
 394 431 l 5
 394 495 365 524 296 524 c 4
 232 524 159 493 159 466 c 5
 70 412 l 5
159 466 m 5
 159 443 191 440 191 404 c 4
 191 367 161 346 134 346 c 4
 105 346 70 364 70 412 c 5
 159 466 l 5
-50 -21 m 5
 34 -62 l 5
 34 -89 62 -114 136 -114 c 4
 265 -114 334 -14 334 90 c 5
 435 90 l 5
 435 -50 317 -160 136 -160 c 4
 4 -160 -50 -93 -50 -21 c 5
34 -62 m 5
 -50 -21 l 5
 -50 27 -12 65 27 65 c 4
 61 65 81 47 81 17 c 4
 81 -44 34 -32 34 -62 c 5
172 226 m 5
 172 260 l 5
 341 260 394 347 394 431 c 5
 495 431 l 5
 495 311 413 226 172 226 c 5
EndSplineSet
Fore
SplineSet
445 90 m 1
 264 90 l 1
 264 174 231 191 172 191 c 1
 172 245 l 1
 323 245 445 220 445 90 c 1
55 412 m 1
 55 494 144 580 316 580 c 0
 407 580 505 541 505 431 c 1
 324 431 l 1
 324 485 298 503 256 503 c 4
 222 503 187 494 187 468 c 1
 55 412 l 1
187 468 m 1
 187 445 216 440 216 404 c 0
 216 357 176 326 139 326 c 0
 100 326 55 354 55 412 c 1
 187 468 l 1
-60 -21 m 1
 72 -56 l 1
 72 -68 82 -89 136 -89 c 0
 235 -89 264 -14 264 90 c 1
 445 90 l 1
 445 -50 317 -170 136 -170 c 0
 4 -170 -60 -93 -60 -21 c 1
72 -56 m 1
 -60 -21 l 1
 -60 47 -27 115 52 115 c 0
 116 115 136 67 136 37 c 0
 136 -44 72 -23 72 -56 c 1
172 226 m 1
 172 280 l 1
 321 280 324 387 324 431 c 1
 505 431 l 1
 505 321 413 226 172 226 c 1
EndSplineSet
EndChar

StartChar: four
Encoding: 52 52 6
Width: 530
VWidth: 1155
Flags: HMW
LayerCount: 2
Back
SplineSet
337 259 m 5
 432 259 l 5
 338 -150 l 5
 243 -150 l 5
 337 259 l 5
70 105 m 5
 12 105 l 5
 107 255 355 420 387 560 c 5
 465 560 l 5
 423 380 165 255 70 105 c 5
50 120 m 5
 490 120 l 5
 478 65 l 5
 38 65 l 5
 50 120 l 5
12 105 m 5
 47 105 l 5
 38 65 l 5
 3 65 l 5
 12 105 l 5
256 -95 m 5
 243 -150 l 5
 148 -150 l 5
 161 -95 l 5
 256 -95 l 5
426 -95 m 5
 413 -150 l 5
 338 -150 l 5
 351 -95 l 5
 426 -95 l 5
407 259 m 5
 433 370 l 5
 458 370 l 5
 432 259 l 5
 407 259 l 5
337 259 m 5
 377 280 398 306 433 370 c 13
 407 259 l 5
 337 259 l 5
EndSplineSet
Fore
SplineSet
255 229 m 5
 304.462890625 233.1875 418.026367188 308.395507812 458 349 c 1
 345 -150 l 1
 170 -150 l 1
 255 229 l 5
53 105 m 1
 -15 105 l 1
 45 255 290 410 290 560 c 1
 458 560 l 1
 458 380 103 235 53 105 c 1
20 125 m 1
 490 125 l 1
 490 45 l 1
 20 45 l 1
 20 125 l 1
-15 105 m 1
 20 105 l 1
 20 45 l 1
 -15 45 l 1
 -15 105 l 1
190 -70 m 1
 190 -150 l 1
 85 -150 l 1
 85 -70 l 1
 190 -70 l 1
450 -70 m 1
 450 -150 l 1
 345 -150 l 1
 345 -70 l 1
 450 -70 l 1
405 239 m 1
 423 349 l 1
 458 349 l 1
 430 239 l 1
 405 239 l 1
255 229 m 5
 290 250 403 285 423 349 c 9
 405 239 l 1
 255 229 l 5
EndSplineSet
EndChar

StartChar: five
Encoding: 53 53 7
Width: 530
VWidth: 1155
Flags: HMW
LayerCount: 2
Back
SplineSet
229 565 m 5
 107 197 l 5
 37 197 l 5
 159 565 l 5
 229 565 l 5
460 130 m 5
 319 110 l 5
 319 204 295 246 246 246 c 4
 203 246 160 237 107 197 c 5
 42 197 l 5
 103 274 177 315 278 315 c 4
 399 315 460 230 460 130 c 5
-35 -11 m 5
 74 -67 l 5
 74 -84 92 -108 146 -108 c 4
 235 -108 319 -24 319 110 c 5
 460 130 l 5
 460 -50 347 -165 156 -165 c 4
 34 -165 -35 -103 -35 -11 c 5
74 -67 m 5
 -35 -11 l 5
 -35 55 10 85 49 85 c 4
 86 85 126 59 126 12 c 4
 126 -44 74 -44 74 -67 c 5
164 435 m 5
 164 565 l 5
 292 565 l 6
 416 565 428 546 465 597 c 5
 535 597 l 5
 506 525 l 6
 475.15625 448.422851562 487 435 250 435 c 6
 164 435 l 5
EndSplineSet
Fore
SplineSet
254 565 m 5
 132 187 l 5
 42 187 l 5
 164 565 l 5
 254 565 l 5
480 130 m 5
 299 110 l 5
 299 204 276 232 237 232 c 4
 197 232 177 218 132 187 c 5
 52 187 l 5
 113 264 187 315 288 315 c 4
 409 315 480 230 480 130 c 5
-25 -11 m 5
 97 -62 l 5
 97 -79 102 -103 156 -103 c 4
 245 -103 299 -24 299 110 c 5
 480 130 l 5
 480 -50 357 -170 166 -170 c 4
 44 -170 -25 -103 -25 -11 c 5
97 -62 m 5
 -25 -11 l 5
 -25 55 20 105 79 105 c 4
 126 105 161 82 161 25 c 4
 161 -41 97 -39 97 -62 c 5
174 395 m 5
 174 565 l 5
 302 565 l 6
 426 565 418 546 455 597 c 5
 545 597 l 5
 506 485 l 6
 475.15625 408.422851562 497 395 260 395 c 6
 174 395 l 5
EndSplineSet
EndChar

StartChar: six
Encoding: 54 54 8
Width: 530
VWidth: 1155
Flags: HMW
LayerCount: 2
Back
SplineSet
413 651 m 5
 510 611 l 5
 510 563 475 535 446 535 c 4
 419 535 389 556 389 593 c 4
 389 629 413 638 413 651 c 5
480 290 m 5
 380 290 l 5
 380 364 363 411 314 411 c 4
 211 411 100 300 100 220 c 5
 66 210 l 5
 66 317 175 460 326 460 c 4
 407 460 480 420 480 290 c 5
480 290 m 5
 480 150 350 -10 189 -10 c 4
 68 -10 10 70 10 220 c 4
 10 470 183 720 364 720 c 4
 446 720 510 693 510 611 c 5
 413 651 l 5
 413 664 408 678 369 678 c 4
 240 678 100 434 100 220 c 4
 100 128.818359375 121.305664062 40 189 40 c 4
 308 40 380 186 380 290 c 5
 480 290 l 5
EndSplineSet
Fore
SplineSet
396 651 m 1
 535 611 l 1
 535 553 500 505 441 505 c 0
 384 505 354 528 354 575 c 0
 354 621 396 633 396 651 c 1
505 290 m 1
 335 310 l 1
 335 354 328 381 299 381 c 0
 241 381 185 300 185 220 c 1
 151 210 l 1
 151 317 195 465 346 465 c 0
 427 465 505 420 505 290 c 1
505 290 m 1
 505 150 410 -20 209 -20 c 0
 88 -20 25 70 25 220 c 0
 25 470 203 730 384 730 c 0
 466 730 535 693 535 611 c 1
 396 651 l 1
 396 659 384 664 369 664 c 4
 280 664 185 434 185 220 c 0
 185 138.818359375 191.305664062 60 229 60 c 0
 298 60 335 176 335 310 c 1
 505 290 l 1
EndSplineSet
EndChar

StartChar: seven
Encoding: 55 55 9
Width: 530
VWidth: 1155
Flags: HMW
LayerCount: 2
Back
SplineSet
39 393 m 1
 69 528 132 585 231 585 c 0
 338 585 363 520 426 520 c 0
 467 520 492 540 502 570 c 1
 531 565 l 1
 511 491 404 427 331 427 c 0
 251 427 250 467 184 467 c 0
 151 467 113 445 103 393 c 1
 39 393 l 1
213 55 m 1
 213 -8 261 -4 261 -80 c 0
 261 -137 211 -165 157 -165 c 0
 108 -165 66 -131 66 -52 c 1
 213 55 l 1
309 218 m 0
 228.594726562 132.715820312 213 99 213 55 c 1
 66 -52 l 1
 66 37 138.556640625 138.651367188 230 231 c 0
 345.418945312 347.561523438 502 520 502 570 c 1
 560 570 l 1
 560 503 425.798828125 341.885742188 309 218 c 0
EndSplineSet
Fore
SplineSet
19 353 m 1
 49 488 112 590 231 590 c 0
 338 590 353 520 416 520 c 0
 457 520 482 540 492 570 c 1
 521 565 l 1
 501 491 394 387 311 387 c 0
 261 387 225 427 179 427 c 0
 136 427 103 405 93 353 c 1
 19 353 l 1
213 55 m 1
 213 -8 266 -4 266 -80 c 0
 266 -137 211 -170 157 -170 c 0
 108 -170 56 -131 56 -52 c 1
 213 55 l 1
309 208 m 4
 231.947375906 119.675074742 213 99 213 55 c 1
 56 -52 l 1
 56 37 128.556640625 138.651367188 220 231 c 0
 335.418945312 347.561523438 492 520 492 570 c 1
 560 570 l 1
 560 503 425.798828125 341.885742188 309 208 c 4
EndSplineSet
EndChar

StartChar: eight
Encoding: 56 56 10
Width: 530
VWidth: 1155
Flags: HMW
LayerCount: 2
Back
SplineSet
205 490 m 4
 205 416 236 385 285 385 c 4
 374 385 425 496 425 570 c 4
 425 644 394 675 345 675 c 4
 256 675 205 564 205 490 c 4
105 490 m 4
 105 600 204 720 345 720 c 4
 446 720 525 680 525 570 c 4
 525 460 426 355 285 355 c 4
 184 355 105 380 105 490 c 4
110 140 m 4
 110 86 126 35 195 35 c 4
 304 35 370 126 370 240 c 4
 370 294 344 345 285 345 c 4
 166 345 110 254 110 140 c 4
10 140 m 4
 10 280 114 375 285 375 c 4
 396 375 470 340 470 240 c 4
 470 100 356 -10 195 -10 c 4
 74 -10 10 40 10 140 c 4
EndSplineSet
Fore
SplineSet
265 460 m 0
 265 426 271 395 295 395 c 0
 324 395 365 516 365 590 c 0
 365 634 355 650 337 650 c 0
 298 650 265 534 265 460 c 0
100 490 m 0
 100 600 204 730 345 730 c 0
 446 730 530 680 530 570 c 0
 530 460 426 355 285 355 c 0
 184 355 100 380 100 490 c 0
175 140 m 0
 175 86 190 57 215 57 c 0
 258 57 305 136 305 250 c 4
 305 304 296 335 270 335 c 0
 231 335 175 234 175 140 c 0
5 140 m 0
 5 280 114 375 285 375 c 0
 396 375 475 330 475 230 c 0
 475 110 376 -20 195 -20 c 0
 74 -20 5 40 5 140 c 0
EndSplineSet
EndChar

StartChar: A
Encoding: 65 65 12
Width: 930
Flags: HMW
LayerCount: 2
Back
SplineSet
397.181640625 275 m 5
 857.181640625 275 l 5
 844.484375 220 l 5
 384.484375 220 l 5
 397.181640625 275 l 5
676.390625 55 m 5
 1006.390625 55 l 5
 993.693359375 0 l 5
 663.693359375 0 l 5
 676.390625 55 l 5
146.390625 55 m 5
 426.390625 55 l 5
 413.693359375 0 l 5
 133.693359375 0 l 5
 146.390625 55 l 5
691.455078125 705 m 5
 775.306640625 765 l 5
 903.693359375 0 l 5
 793.693359375 0 l 5
 691.455078125 705 l 5
716.306640625 765 m 5
 775.306640625 765 l 5
 272.693359375 0 l 5
 208.693359375 0 l 5
 716.306640625 765 l 5
EndSplineSet
Fore
SplineSet
635 765 m 1
 635 695 l 1
 557 695 l 1
 557 765 l 1
 635 765 l 1
200 285 m 1
 651 285 l 1
 660 190 l 1
 200 190 l 1
 200 285 l 1
440 105 m 1
 850 105 l 1
 850 0 l 1
 440 0 l 1
 440 105 l 1
-60 105 m 1
 270 105 l 1
 270 0 l 1
 -60 0 l 1
 -60 105 l 1
462 695 m 5
 635 765 l 1
 780 0 l 1
 577 0 l 5
 462 695 l 5
465 765 m 1
 585 765 l 1
 100 0 l 1
 -25 0 l 1
 465 765 l 1
EndSplineSet
EndChar

StartChar: B
Encoding: 66 66 13
Width: 822
Flags: HMW
LayerCount: 2
Back
SplineSet
431.234375 415 m 5
 507.234375 415 590.700195312 456 613.556640625 555 c 4
 636.412109375 654 571.877929688 695 495.877929688 695 c 5
 508.575195312 750 l 5
 659.575195312 750 743.569335938 685 713.556640625 555 c 4
 683.54296875 425 584.154296875 380 423.154296875 380 c 5
 431.234375 415 l 5
228.575195312 750 m 5
 323.575195312 750 l 5
 150.424804688 0 l 5
 55.4248046875 0 l 5
 228.575195312 750 l 5
118.575195312 750 m 5
 228.575195312 750 l 5
 215.877929688 695 l 5
 105.877929688 695 l 5
 118.575195312 750 l 5
-41.8779296875 55 m 5
 68.1220703125 55 l 5
 55.4248046875 0 l 5
 -54.5751953125 0 l 5
 -41.8779296875 55 l 5
241.234375 415 m 5
 451.234375 415 l 5
 438.537109375 360 l 5
 228.537109375 360 l 5
 241.234375 415 l 5
318.575195312 750 m 5
 508.575195312 750 l 5
 495.877929688 695 l 5
 305.877929688 695 l 5
 318.575195312 750 l 5
158.122070312 55 m 5
 358.122070312 55 l 5
 355.424804688 0 l 5
 145.424804688 0 l 5
 158.122070312 55 l 5
358.122070312 55 m 5
 444.122070312 55 531.05078125 111 553.907226562 210 c 4
 576.762695312 309 514.537109375 360 428.537109375 360 c 5
 446.6171875 395 l 5
 607.6171875 395 693.919921875 340 663.907226562 210 c 4
 629.276367188 60 516.424804688 0 355.424804688 0 c 5
 358.122070312 55 l 5
EndSplineSet
Fore
SplineSet
78 750 m 1
 223 750 l 1
 223 645 l 1
 78 645 l 1
 78 750 l 1
-50 105 m 1
 85 105 l 1
 85 0 l 1
 -50 0 l 1
 -50 105 l 1
472 440 m 1
 548 440 622 471 622 560 c 0
 622 619 598 645 542 645 c 1
 552 750 l 1
 723 750 812 690 812 570 c 0
 812 420 653 380 472 380 c 1
 472 440 l 1
222 750 m 1
 412 750 l 1
 252 0 l 1
 62 0 l 1
 222 750 l 1
277 440 m 1
 492 440 l 1
 492 335 l 1
 277 335 l 1
 277 440 l 1
352 750 m 1
 552 750 l 1
 542 645 l 1
 352 645 l 1
 352 750 l 1
197 105 m 1
 402 105 l 1
 412 0 l 1
 197 0 l 1
 197 105 l 1
402 105 m 5
 518 105 572 166 572 235 c 0
 572 304 538 335 472 335 c 1
 492 395 l 1
 653 395 772 355 772 235 c 4
 772 75 653 0 412 0 c 1
 402 105 l 5
EndSplineSet
EndChar

StartChar: C
Encoding: 67 67 14
Width: 847
Flags: HMW
LayerCount: 2
Back
SplineSet
494.575195312 760 m 1
 687.575195312 760 794.575195312 643 794.575195312 450 c 0
 794.575195312 217 597.575195312 -10 354.575195312 -10 c 1
 354.575195312 40 l 1
 548.575195312 40 679.575195312 273 679.575195312 445 c 0
 679.575195312 597 638.575195312 710 494.575195312 710 c 1
 494.575195312 760 l 1
354.575195312 -10 m 1
 161.575195312 -10 54.5751953125 107 54.5751953125 300 c 0
 54.5751953125 533 251.575195312 760 494.575195312 760 c 1
 494.575195312 710 l 1
 300.575195312 710 169.575195312 477 169.575195312 305 c 0
 169.575195312 153 210.575195312 40 354.575195312 40 c 1
 354.575195312 -10 l 1
1506.13769531 620 m 17
 1577.3046875 755 l 9
 1529.97753906 550 l 1
 1506.13769531 620 l 17
1517.27929688 495 m 1
 1577.3046875 755 l 1
 1622.3046875 755 l 1
 1562.27929688 495 l 1
 1517.27929688 495 l 1
1552.27929688 495 m 1
 1507.27929688 495 l 1
 1520.828125 597 1449.06933594 702 1305.06933594 702 c 0
 1131.06933594 702 1001.59277344 557 959.575195312 375 c 1
 844.575195312 375 l 1
 896.05859375 598 1110.45898438 760 1313.45898438 760 c 0
 1506.45898438 760 1576.05859375 598 1552.27929688 495 c 1
1526.10546875 295 m 1
 1476.16601562 122 1323.69140625 -10 1120.69140625 -10 c 0
 907.69140625 -10 793.091796875 152 844.575195312 375 c 1
 959.575195312 375 l 1
 917.557617188 193 970.3125 49 1144.3125 49 c 0
 1308.3125 49 1432.93945312 173 1471.10546875 295 c 1
 1526.10546875 295 l 1
EndSplineSet
Fore
SplineSet
687 620 m 17
 782 750 l 9
 750 570 l 1
 687 620 l 17
723 465 m 1
 782 750 l 1
 887 750 l 1
 828 465 l 1
 723 465 l 1
775 555 m 1
 723 465 l 1
 743 603 636 654 533 654 c 0
 342 654 240 480 240 305 c 1
 35 295 l 1
 35 526 227 765 525 765 c 0
 714 765 755 658 775 555 c 1
790 285 m 1
 747 152 648 -15 375 -15 c 0
 162 -15 35 75 35 295 c 1
 240 305 l 1
 240 173 289 98 403 98 c 0
 539 98 634 173 677 285 c 5
 790 285 l 1
EndSplineSet
EndChar

StartChar: D
Encoding: 68 68 15
Width: 898
Flags: HMW
LayerCount: 2
Back
SplineSet
-50.8779296875 55 m 5
 59.1220703125 55 l 5
 46.4248046875 0 l 5
 -63.5751953125 0 l 5
 -50.8779296875 55 l 5
109.575195312 750 m 5
 219.575195312 750 l 5
 206.877929688 695 l 5
 96.8779296875 695 l 5
 109.575195312 750 l 5
219.575195312 750 m 5
 314.575195312 750 l 5
 141.424804688 0 l 5
 46.4248046875 0 l 5
 219.575195312 750 l 5
306.424804688 0 m 6
 141.424804688 0 l 5
 154.122070312 55 l 5
 319.122070312 55 l 6
 503.122070312 55 595.982421875 193 638 375 c 4
 680.017578125 557 640.877929688 695 466.877929688 695 c 6
 301.877929688 695 l 5
 314.575195312 750 l 5
 479.575195312 750 l 6
 702.575195312 750 802.174804688 588 753 375 c 4
 703.825195312 162 519.424804688 0 306.424804688 0 c 6
EndSplineSet
Fore
SplineSet
77 750 m 1
 222 750 l 1
 222 645 l 1
 77 645 l 1
 77 750 l 1
-50 105 m 1
 75 105 l 1
 75 0 l 1
 -50 0 l 1
 -50 105 l 1
213 750 m 1
 403 750 l 1
 243 0 l 1
 53 0 l 1
 213 750 l 1
363 0 m 2
 198 0 l 1
 198 105 l 1
 363 105 l 2
 507 105 658 243 658 485 c 0
 658 597 627 645 513 645 c 2
 338 645 l 1
 338 750 l 1
 513 750 l 2
 786 750 863 608 863 465 c 0
 863 142 616 0 363 0 c 2
EndSplineSet
EndChar

StartChar: E
Encoding: 69 69 16
Width: 769
Flags: HMW
LayerCount: 2
Back
SplineSet
330.618164062 408 m 21
 417.618164062 408 461.700195312 456 477.168945312 523 c 13
 450.618164062 408 l 5
 330.618164062 408 l 21
413.6796875 248 m 21
 429.147460938 315 408.383789062 368 321.383789062 368 c 13
 441.383789062 368 l 5
 413.6796875 248 l 21
394.122070312 55 m 21
 531.122070312 55 574.049804688 98 610.295898438 255 c 13
 564.122070312 55 l 5
 394.122070312 55 l 21
413.6796875 248 m 5
 441.383789062 368 l 5
 486.383789062 368 l 5
 458.6796875 248 l 5
 413.6796875 248 l 5
450.618164062 408 m 5
 477.168945312 523 l 5
 522.168945312 523 l 5
 495.618164062 408 l 5
 450.618164062 408 l 5
564.122070312 55 m 5
 610.295898438 255 l 5
 660.295898438 255 l 5
 614.122070312 55 l 5
 564.122070312 55 l 5
660.321289062 515 m 5
 701.877929688 695 l 5
 751.877929688 695 l 5
 710.321289062 515 l 5
 660.321289062 515 l 5
164.122070312 55 m 5
 614.122070312 55 l 5
 601.424804688 0 l 5
 151.424804688 0 l 5
 164.122070312 55 l 5
324.575195312 750 m 5
 764.575195312 750 l 5
 751.877929688 695 l 5
 311.877929688 695 l 5
 324.575195312 750 l 5
245.618164062 408 m 5
 495.618164062 408 l 5
 486.383789062 368 l 5
 236.383789062 368 l 5
 245.618164062 408 l 5
-40.8779296875 55 m 5
 69.1220703125 55 l 5
 56.4248046875 0 l 5
 -53.5751953125 0 l 5
 -40.8779296875 55 l 5
119.575195312 750 m 5
 229.575195312 750 l 5
 216.877929688 695 l 5
 106.877929688 695 l 5
 119.575195312 750 l 5
229.575195312 750 m 5
 324.575195312 750 l 5
 151.424804688 0 l 5
 56.4248046875 0 l 5
 229.575195312 750 l 5
660.321289062 515 m 21
 691.950195312 652 668.877929688 695 551.877929688 695 c 13
 701.877929688 695 l 5
 660.321289062 515 l 21
EndSplineSet
Fore
SplineSet
-50 105 m 1
 105 105 l 1
 75 0 l 1
 -50 0 l 1
 -50 105 l 1
94 750 m 1
 229 750 l 1
 229 645 l 1
 94 645 l 1
 94 750 l 1
363 428 m 17
 450 428 498 456 518 523 c 9
 504 428 l 1
 363 428 l 17
453 248 m 17
 468 315 450 348 363 348 c 9
 483 348 l 1
 453 248 l 17
418 105 m 17
 555 105 613 138 653 295 c 9
 622 105 l 1
 418 105 l 17
453 248 m 1
 518 523 l 1
 593 523 l 5
 528 248 l 5
 453 248 l 1
598 0 m 1
 653 295 l 1
 743 295 l 1
 678 0 l 1
 598 0 l 1
681 475 m 1
 739 750 l 1
 829 750 l 1
 771 475 l 1
 681 475 l 1
203 105 m 1
 622 105 l 1
 598 0 l 1
 203 0 l 1
 203 105 l 1
360 750 m 1
 739 750 l 1
 727 645 l 1
 360 645 l 1
 360 750 l 1
268 428 m 1
 508 428 l 1
 488 348 l 1
 268 348 l 1
 268 428 l 1
228 750 m 1
 418 750 l 1
 248 0 l 1
 58 0 l 1
 228 750 l 1
681 475 m 17
 711 612 692 645 575 645 c 9
 727 645 l 1
 681 475 l 17
EndSplineSet
EndChar

StartChar: F
Encoding: 70 70 17
Width: 749
Flags: HMW
LayerCount: 2
Back
SplineSet
154.122070312 55 m 5
 274.122070312 55 l 5
 261.424804688 0 l 5
 141.424804688 0 l 5
 154.122070312 55 l 5
328.309570312 398 m 21
 415.309570312 398 457.083007812 436 472.55078125 503 c 13
 448.309570312 398 l 5
 328.309570312 398 l 21
411.37109375 238 m 21
 426.838867188 305 403.766601562 348 316.766601562 348 c 13
 436.766601562 348 l 5
 411.37109375 238 l 21
411.37109375 238 m 5
 436.766601562 348 l 5
 481.766601562 348 l 5
 456.37109375 238 l 5
 411.37109375 238 l 5
448.309570312 398 m 5
 472.55078125 503 l 5
 517.55078125 503 l 5
 493.309570312 398 l 5
 448.309570312 398 l 5
640.321289062 515 m 5
 681.877929688 695 l 5
 731.877929688 695 l 5
 690.321289062 515 l 5
 640.321289062 515 l 5
314.575195312 750 m 5
 744.575195312 750 l 5
 731.877929688 695 l 5
 301.877929688 695 l 5
 314.575195312 750 l 5
233.309570312 398 m 5
 493.309570312 398 l 5
 481.766601562 348 l 5
 221.766601562 348 l 5
 233.309570312 398 l 5
-50.8779296875 55 m 5
 59.1220703125 55 l 5
 46.4248046875 0 l 5
 -63.5751953125 0 l 5
 -50.8779296875 55 l 5
109.575195312 750 m 5
 219.575195312 750 l 5
 206.877929688 695 l 5
 96.8779296875 695 l 5
 109.575195312 750 l 5
219.575195312 750 m 5
 314.575195312 750 l 5
 141.424804688 0 l 5
 46.4248046875 0 l 5
 219.575195312 750 l 5
640.321289062 515 m 21
 671.950195312 652 648.877929688 695 531.877929688 695 c 13
 681.877929688 695 l 5
 640.321289062 515 l 21
EndSplineSet
Fore
SplineSet
192 105 m 1
 377 105 l 1
 377 0 l 1
 192 0 l 1
 192 105 l 1
-50 105 m 1
 85 105 l 1
 65 0 l 1
 -50 0 l 1
 -50 105 l 1
74 750 m 1
 219 750 l 1
 219 645 l 1
 74 645 l 1
 74 750 l 1
363 413 m 17
 450 413 488 446 508 513 c 9
 493 413 l 1
 363 413 l 17
443 208 m 17
 458 305 450 333 363 333 c 9
 483 333 l 1
 443 208 l 17
443 208 m 1
 508 513 l 1
 583 513 l 1
 518 208 l 1
 443 208 l 1
670 475 m 5
 739 750 l 5
 809 750 l 1
 750 475 l 1
 670 475 l 5
350 750 m 1
 739 750 l 1
 727 645 l 1
 350 645 l 1
 350 750 l 1
268 413 m 1
 498 413 l 1
 488 333 l 1
 268 333 l 1
 268 413 l 1
218 750 m 1
 408 750 l 1
 238 0 l 1
 48 0 l 1
 218 750 l 1
670 475 m 21
 700 632 662 645 565 645 c 9
 727 645 l 1
 670 475 l 21
278 413 m 1
 518 413 l 1
 518 333 l 1
 278 333 l 1
 278 413 l 1
EndSplineSet
EndChar

StartChar: G
Encoding: 71 71 18
Width: 937
Flags: HMW
LayerCount: 2
Back
SplineSet
706.5625 620 m 21
 776.575195312 750 l 13
 730.40234375 550 l 5
 706.5625 620 l 21
717.704101562 495 m 5
 776.575195312 750 l 5
 821.575195312 750 l 5
 762.704101562 495 l 5
 717.704101562 495 l 5
752.704101562 495 m 1
 707.704101562 495 l 1
 721.252929688 597 691.956054688 704 507.956054688 704 c 0
 343.956054688 704 202.017578125 557 160 375 c 1
 45 375 l 1
 96.4833984375 598 310.883789062 760 513.883789062 760 c 0
 706.883789062 760 783.409179688 628 752.704101562 495 c 1
708.061523438 215 m 1
 676.590820312 122 544.116210938 -10 321.116210938 -10 c 0
 113.116210938 -10 -6.4833984375 152 45 375 c 1
 160 375 l 1
 117.982421875 193 169.813476562 45 338.813476562 45 c 0
 472.813476562 45 561.821289062 123 596.134765625 185 c 1
 708.061523438 215 l 1
624.993164062 310 m 1
 728.838867188 305 l 1
 708.061523438 215 l 1
 596.134765625 185 l 1
 624.993164062 310 l 1
513.845703125 370 m 1
 843.845703125 370 l 1
 828.838867188 305 l 1
 498.838867188 305 l 1
 513.845703125 370 l 1
EndSplineSet
Fore
SplineSet
686.5625 620 m 17
 791.575195312 750 l 9
 770.40234375 570 l 1
 686.5625 620 l 17
742.704101562 465 m 5
 791.575195312 750 l 1
 896.575195312 750 l 1
 847.704101562 465 l 5
 742.704101562 465 l 5
795 535 m 5
 742.704101562 465 l 5
 762.704101562 583 666 664 533 664 c 0
 352 664 240 480 240 305 c 1
 35 305 l 1
 35 536 247 770 525 770 c 0
 734 770 775 638 795 535 c 5
797 175 m 1
 747 92 617 -20 384 -20 c 0
 176 -20 35 102 35 305 c 1
 240 305 l 1
 240 173 296 82 405 82 c 0
 479 82 534 98 585 150 c 1
 797 175 l 1
632 312 m 1
 835 307 l 1
 797 175 l 1
 585 150 l 1
 632 312 l 1
527 380 m 1
 927 380 l 1
 927 285 l 1
 527 285 l 1
 527 380 l 1
EndSplineSet
EndChar

StartChar: H
Encoding: 72 72 19
Width: 943
Flags: HMW
LayerCount: 2
Back
SplineSet
237.234375 415 m 5
 637.234375 415 l 5
 624.537109375 360 l 5
 224.537109375 360 l 5
 237.234375 415 l 5
434.122070312 55 m 1
 554.122070312 55 l 1
 541.424804688 0 l 1
 421.424804688 0 l 1
 434.122070312 55 l 1
649.122070312 55 m 1
 759.122070312 55 l 1
 746.424804688 0 l 1
 636.424804688 0 l 1
 649.122070312 55 l 1
-50.8779296875 55 m 1
 59.1220703125 55 l 1
 46.4248046875 0 l 1
 -63.5751953125 0 l 1
 -50.8779296875 55 l 1
154.122070312 55 m 1
 274.122070312 55 l 1
 261.424804688 0 l 1
 141.424804688 0 l 1
 154.122070312 55 l 1
594.575195312 750 m 1
 714.575195312 750 l 1
 701.877929688 695 l 1
 581.877929688 695 l 1
 594.575195312 750 l 1
809.575195312 750 m 1
 919.575195312 750 l 1
 906.877929688 695 l 1
 796.877929688 695 l 1
 809.575195312 750 l 1
109.575195312 750 m 1
 219.575195312 750 l 1
 206.877929688 695 l 1
 96.8779296875 695 l 1
 109.575195312 750 l 1
314.575195312 750 m 1
 434.575195312 750 l 1
 421.877929688 695 l 1
 301.877929688 695 l 1
 314.575195312 750 l 1
714.575195312 750 m 1
 809.575195312 750 l 1
 636.424804688 0 l 1
 541.424804688 0 l 1
 714.575195312 750 l 1
219.575195312 750 m 1
 314.575195312 750 l 1
 141.424804688 0 l 1
 46.4248046875 0 l 1
 219.575195312 750 l 1
EndSplineSet
Fore
SplineSet
593 750 m 1
 733 750 l 1
 733 645 l 1
 593 645 l 1
 593 750 l 1
888 750 m 1
 993 750 l 1
 993 645 l 1
 868 645 l 1
 888 750 l 1
455 105 m 1
 590 105 l 1
 590 0 l 1
 455 0 l 1
 455 105 l 1
735 105 m 1
 875 105 l 5
 875 0 l 5
 735 0 l 1
 735 105 l 1
78 750 m 1
 228 750 l 1
 228 645 l 1
 78 645 l 1
 78 750 l 1
383 750 m 1
 488 750 l 1
 488 645 l 1
 353 645 l 1
 383 750 l 1
-50 105 m 1
 85 105 l 1
 85 0 l 1
 -50 0 l 1
 -50 105 l 1
190 105 m 1
 370 105 l 1
 370 0 l 1
 190 0 l 1
 190 105 l 1
257 440 m 1
 706 440 l 1
 706 336 l 1
 257 336 l 1
 257 440 l 1
556 0 m 1
 716 750 l 1
 906 750 l 1
 746 0 l 1
 556 0 l 1
51 0 m 1
 211 750 l 1
 401 750 l 1
 241 0 l 1
 51 0 l 1
EndSplineSet
EndChar

StartChar: I
Encoding: 73 73 20
Width: 458
Flags: HMW
LayerCount: 2
Back
SplineSet
-49.8779296875 55 m 5
 60.1220703125 55 l 5
 47.4248046875 0 l 5
 -62.5751953125 0 l 5
 -49.8779296875 55 l 5
155.122070312 55 m 5
 275.122070312 55 l 5
 262.424804688 0 l 5
 142.424804688 0 l 5
 155.122070312 55 l 5
110.575195312 750 m 5
 220.575195312 750 l 5
 207.877929688 695 l 5
 97.8779296875 695 l 5
 110.575195312 750 l 5
315.575195312 750 m 5
 435.575195312 750 l 5
 422.877929688 695 l 5
 302.877929688 695 l 5
 315.575195312 750 l 5
220.575195312 750 m 5
 315.575195312 750 l 5
 142.424804688 0 l 5
 47.4248046875 0 l 5
 220.575195312 750 l 5
EndSplineSet
Fore
SplineSet
78 750 m 1
 228 750 l 1
 228 645 l 1
 78 645 l 1
 78 750 l 1
383 750 m 1
 508 750 l 5
 508 645 l 5
 383 645 l 1
 383 750 l 1
51 0 m 1
 217 750 l 1
 407 750 l 1
 242 0 l 1
 51 0 l 1
-50 105 m 1
 105 105 l 1
 105 0 l 1
 -50 0 l 1
 -50 105 l 1
230 105 m 1
 390 105 l 5
 390 0 l 5
 230 0 l 1
 230 105 l 1
EndSplineSet
EndChar

StartChar: J
Encoding: 74 74 21
Width: 666
Flags: HMW
LayerCount: 2
Back
SplineSet
106.74609375 135 m 5
 106.74609375 135 1.12890625 115 8.0546875 145 c 4
 22.3681640625 207 68.9873046875 240 108.987304688 240 c 4
 143.987304688 240 167.676757812 217 159.366210938 181 c 5
 142.517578125 160 l 5
 106.74609375 135 l 5
94.3564453125 90 m 5
 11.0517578125 119 l 5
 35.134765625 180 l 5
 159.366210938 181 l 5
 144.359375 116 104.053710938 132 94.3564453125 90 c 5
8.0546875 145 m 5
 94.3564453125 90 l 5
 90.4326171875 73 98.9677734375 45 180.967773438 45 c 4
 271.967773438 45 338.666015625 100 370.987304688 240 c 5
 472.913085938 270 l 5
 435.974609375 110 329.270507812 -10 168.270507812 -10 c 4
 31.2705078125 -10 -8.1064453125 75 8.0546875 145 c 5
348.729492188 750 m 5
 488.729492188 750 l 5
 476.032226562 695 l 5
 336.032226562 695 l 5
 348.729492188 750 l 5
583.729492188 750 m 5
 703.729492188 750 l 5
 691.032226562 695 l 5
 571.032226562 695 l 5
 583.729492188 750 l 5
488.729492188 750 m 5
 583.729492188 750 l 5
 472.913085938 270 l 5
 370.987304688 240 l 5
 488.729492188 750 l 5
EndSplineSet
Fore
SplineSet
203 221 m 0
 203 142 131 138 131 116 c 5
 -40 175 l 1
 -40 267 19 330 89 330 c 0
 154 330 203 287 203 221 c 0
301 750 m 1
 736 750 l 1
 736 645 l 1
 301 645 l 1
 301 750 l 1
-40 175 m 1
 131 116 l 5
 131 109 134 80 196 80 c 0
 267 80 304.734375 107.12109375 336 240 c 2
 451 750 l 1
 641 750 l 1
 526 270 l 2
 486 110 397 -15 196 -15 c 0
 39 -15 -40 75 -40 175 c 1
EndSplineSet
EndChar

StartChar: K
Encoding: 75 75 22
Width: 890
Flags: HMW
LayerCount: 2
Back
SplineSet
771 84 m 5
 756 29 692 -10 626 -10 c 4
 413.03125 -10 622.256835938 345 366 345 c 5
 386 391 l 5
 719.294921875 391 529.228515625 57 662 57 c 4
 693 57 722 73 741 101 c 5
 771 84 l 5
-52.8779296875 55 m 1
 57.1220703125 55 l 1
 44.4248046875 0 l 1
 -65.5751953125 0 l 1
 -52.8779296875 55 l 1
152.122070312 55 m 1
 272.122070312 55 l 1
 259.424804688 0 l 1
 139.424804688 0 l 1
 152.122070312 55 l 1
107.575195312 750 m 1
 217.575195312 750 l 1
 204.877929688 695 l 1
 94.8779296875 695 l 1
 107.575195312 750 l 1
312.575195312 750 m 1
 432.575195312 750 l 1
 419.877929688 695 l 1
 299.877929688 695 l 1
 312.575195312 750 l 1
217.575195312 750 m 1
 312.575195312 750 l 1
 139.424804688 0 l 1
 44.4248046875 0 l 1
 217.575195312 750 l 1
174.522460938 217 m 1
 101.522460938 217 l 1
 738.114257812 748 l 1
 813.114257812 748 l 1
 174.522460938 217 l 1
452.122070312 55 m 1
 782.122070312 55 l 1
 769.424804688 0 l 1
 439.424804688 0 l 1
 452.122070312 55 l 1
864.877929688 695 m 1
 564.877929688 695 l 1
 577.575195312 750 l 1
 877.575195312 750 l 1
 864.877929688 695 l 1
701.424804688 0 m 1
 581.424804688 0 l 1
 360.388671875 420 l 1
 442.932617188 470 l 1
 701.424804688 0 l 1
EndSplineSet
Fore
SplineSet
822 -3 m 25
 657 -3 l 2
 404.03125 -3 538.256835938 282 372 382 c 1
 432 428 l 1
 745.294921875 398 620.228515625 102 753 102 c 2
 822 102 l 1
 822 -3 l 25
548 747 m 1
 890 747 l 1
 890 642 l 1
 548 642 l 1
 548 747 l 1
-50 105 m 1
 85 105 l 1
 85 0 l 1
 -50 0 l 1
 -50 105 l 1
231 102 m 1
 346 102 l 1
 346 -3 l 1
 231 -3 l 1
 231 102 l 1
105 750 m 1
 220 750 l 1
 220 645 l 1
 105 645 l 1
 105 750 l 1
386 747 m 1
 481 747 l 1
 481 642 l 1
 346 642 l 1
 386 747 l 1
216 750 m 1
 392 747 l 5
 227 -3 l 5
 51 0 l 1
 216 750 l 1
282 214 m 1
 136 214 l 1
 748 747 l 1
 853 707 l 1
 282 214 l 1
EndSplineSet
EndChar

StartChar: L
Encoding: 76 76 23
Width: 766
Flags: HMW
LayerCount: 2
Back
SplineSet
324.575195312 750 m 5
 434.575195312 750 l 5
 421.877929688 695 l 5
 311.877929688 695 l 5
 324.575195312 750 l 5
389.122070312 55 m 21
 526.122070312 55 573.666992188 118 605.295898438 255 c 13
 559.122070312 55 l 5
 389.122070312 55 l 21
559.122070312 55 m 5
 605.295898438 255 l 5
 655.295898438 255 l 5
 609.122070312 55 l 5
 559.122070312 55 l 5
164.122070312 55 m 5
 609.122070312 55 l 5
 596.424804688 0 l 5
 151.424804688 0 l 5
 164.122070312 55 l 5
-40.8779296875 55 m 5
 69.1220703125 55 l 5
 56.4248046875 0 l 5
 -53.5751953125 0 l 5
 -40.8779296875 55 l 5
119.575195312 750 m 5
 229.575195312 750 l 5
 216.877929688 695 l 5
 106.877929688 695 l 5
 119.575195312 750 l 5
229.575195312 750 m 5
 324.575195312 750 l 5
 151.424804688 0 l 5
 56.4248046875 0 l 5
 229.575195312 750 l 5
EndSplineSet
Fore
SplineSet
355 750 m 1
 500 750 l 1
 500 645 l 1
 355 645 l 1
 355 750 l 1
-50 105 m 1
 95 105 l 1
 95 0 l 1
 -50 0 l 1
 -50 105 l 1
94 750 m 1
 229 750 l 1
 229 645 l 1
 94 645 l 1
 94 750 l 1
406 105 m 17
 543 105 586 168 626 325 c 13
 610 105 l 1
 406 105 l 17
576 0 m 1
 626 325 l 5
 716 325 l 5
 646 0 l 1
 576 0 l 1
198 105 m 1
 603 105 l 1
 603 0 l 1
 198 0 l 1
 198 105 l 1
223 750 m 1
 413 750 l 1
 253 0 l 1
 63 0 l 1
 223 750 l 1
EndSplineSet
EndChar

StartChar: M
Encoding: 77 77 24
Width: 1113
Flags: HMW
LayerCount: 2
Back
SplineSet
436.817382812 79 m 5
 361.270507812 -10 l 5
 278.729492188 750 l 5
 369.729492188 750 l 5
 436.817382812 79 l 5
425.270507812 -10 m 5
 361.270507812 -10 l 5
 786.729492188 750 l 5
 855.729492188 750 l 5
 425.270507812 -10 l 5
575.276367188 55 m 5
 900.276367188 55 l 5
 887.579101562 0 l 5
 562.579101562 0 l 5
 575.276367188 55 l 5
-64.7236328125 55 m 5
 230.276367188 55 l 5
 217.579101562 0 l 5
 -77.4208984375 0 l 5
 -64.7236328125 55 l 5
920.729492188 750 m 5
 1030.72949219 750 l 5
 1018.03222656 695 l 5
 908.032226562 695 l 5
 920.729492188 750 l 5
125.729492188 750 m 5
 240.729492188 750 l 5
 228.032226562 695 l 5
 113.032226562 695 l 5
 125.729492188 750 l 5
830.729492188 750 m 5
 920.729492188 750 l 5
 777.579101562 0 l 5
 682.579101562 0 l 5
 830.729492188 750 l 5
240.729492188 750 m 5
 300.729492188 750 l 5
 97.5791015625 0 l 5
 32.5791015625 0 l 5
 240.729492188 750 l 5
EndSplineSet
Fore
SplineSet
641 105 m 5
 766 105 l 5
 766 0 l 5
 641 0 l 5
 641 105 l 5
891 105 m 5
 1031 105 l 5
 1031 0 l 5
 891 0 l 5
 891 105 l 5
-60 105 m 1
 65 105 l 1
 65 0 l 1
 -60 0 l 1
 -60 105 l 1
145 105 m 1
 280 105 l 1
 280 0 l 1
 145 0 l 1
 145 105 l 1
107 750 m 1
 242 750 l 1
 242 645 l 1
 107 645 l 1
 107 750 l 1
1008 750 m 5
 1133 750 l 5
 1133 645 l 5
 988 645 l 5
 1008 750 l 5
550 129 m 5
 389 -10 l 5
 271 750 l 1
 452 750 l 1
 550 129 l 5
508 -10 m 5
 389 -10 l 5
 779 750 l 5
 903 750 l 5
 508 -10 l 5
848 750 m 5
 1023 750 l 5
 893 0 l 5
 713 0 l 5
 848 750 l 5
223 750 m 1
 336 750 l 1
 151 0 l 1
 33 0 l 1
 223 750 l 1
EndSplineSet
EndChar

StartChar: N
Encoding: 78 78 25
Width: 958
Flags: HMW
LayerCount: 2
Back
SplineSet
652.270507812 -10 m 5
 617.270507812 -10 l 5
 639.202148438 85 l 5
 674.202148438 85 l 5
 652.270507812 -10 l 5
652.729492188 750 m 5
 762.729492188 750 l 5
 750.032226562 695 l 5
 640.032226562 695 l 5
 652.729492188 750 l 5
669.12890625 115 m 5
 617.270507812 -10 l 5
 207.729492188 750 l 5
 332.729492188 750 l 5
 669.12890625 115 l 5
-42.7236328125 55 m 5
 62.2763671875 55 l 5
 49.5791015625 0 l 5
 -55.4208984375 0 l 5
 -42.7236328125 55 l 5
127.276367188 55 m 5
 242.276367188 55 l 5
 229.579101562 0 l 5
 114.579101562 0 l 5
 127.276367188 55 l 5
827.729492188 750 m 5
 932.729492188 750 l 5
 920.032226562 695 l 5
 815.032226562 695 l 5
 827.729492188 750 l 5
117.729492188 750 m 5
 222.729492188 750 l 5
 210.032226562 695 l 5
 105.032226562 695 l 5
 117.729492188 750 l 5
762.729492188 750 m 5
 827.729492188 750 l 5
 652.270507812 -10 l 5
 601.122070312 50 l 5
 762.729492188 750 l 5
222.729492188 750 m 5
 287.729492188 750 l 5
 114.579101562 0 l 5
 49.5791015625 0 l 5
 222.729492188 750 l 5
EndSplineSet
Fore
SplineSet
648 750 m 5
 778 750 l 1
 778 645 l 1
 648 645 l 5
 648 750 l 5
848 750 m 1
 978 750 l 1
 978 645 l 1
 848 645 l 1
 848 750 l 1
-50 105 m 1
 75 105 l 1
 75 0 l 1
 -50 0 l 1
 -50 105 l 1
115 105 m 1
 275 105 l 1
 275 0 l 1
 115 0 l 1
 115 105 l 1
720 -10 m 1
 630 -10 l 1
 630 85 l 1
 720 85 l 1
 720 -10 l 1
733 170 m 1
 630 -10 l 1
 190 750 l 1
 393 750 l 1
 733 170 l 1
90 750 m 1
 215 750 l 1
 215 645 l 1
 90 645 l 1
 90 750 l 1
760 750 m 1
 880 750 l 1
 720 -10 l 1
 613 50 l 1
 760 750 l 1
195 750 m 1
 313 750 l 1
 153 0 l 1
 35 0 l 1
 195 750 l 1
EndSplineSet
EndChar

StartChar: O
Encoding: 79 79 26
Width: 910
Flags: HMW
LayerCount: 2
Back
SplineSet
160 375 m 4
 117.982421875 193 153.659179688 40 327.659179688 40 c 4
 511.659179688 40 607.982421875 193 650 375 c 4
 692.017578125 557 656.340820312 710 482.340820312 710 c 4
 308.340820312 710 202.017578125 557 160 375 c 4
45 375 m 4
 94.1748046875 588 270.883789062 760 493.883789062 760 c 4
 716.883789062 760 814.174804688 588 765 375 c 4
 715.825195312 162 529.116210938 -10 316.116210938 -10 c 4
 93.1162109375 -10 -4.1748046875 162 45 375 c 4
EndSplineSet
Fore
SplineSet
525 770 m 1
 738 770 875 653 875 450 c 0
 875 197 678 -20 385 -20 c 1
 385 80 l 1
 579 80 670 323 670 465 c 4
 670 597 629 670 525 670 c 1
 525 770 l 1
385 -20 m 1
 172 -20 35 97 35 300 c 0
 35 553 232 770 525 770 c 1
 525 670 l 1
 331 670 240 427 240 285 c 0
 240 153 281 80 385 80 c 1
 385 -20 l 1
EndSplineSet
EndChar

StartChar: P
Encoding: 80 80 27
Width: 767
Flags: HMW
LayerCount: 2
Back
SplineSet
153.122070312 55 m 5
 263.122070312 55 l 5
 250.424804688 0 l 5
 140.424804688 0 l 5
 153.122070312 55 l 5
379.30859375 385 m 5
 475.30859375 385 544.545898438 451 565.092773438 540 c 4
 585.640625 629 546.877929688 695 450.877929688 695 c 5
 463.575195312 750 l 5
 644.575195312 750 705.106445312 670 675.092773438 540 c 4
 645.080078125 410 547.611328125 330 366.611328125 330 c 5
 379.30859375 385 l 5
218.575195312 750 m 5
 313.575195312 750 l 5
 140.424804688 0 l 5
 45.4248046875 0 l 5
 218.575195312 750 l 5
108.575195312 750 m 5
 218.575195312 750 l 5
 205.877929688 695 l 5
 95.8779296875 695 l 5
 108.575195312 750 l 5
-51.8779296875 55 m 5
 58.1220703125 55 l 5
 45.4248046875 0 l 5
 -64.5751953125 0 l 5
 -51.8779296875 55 l 5
229.30859375 385 m 5
 379.30859375 385 l 5
 366.611328125 330 l 5
 216.611328125 330 l 5
 229.30859375 385 l 5
313.575195312 750 m 5
 463.575195312 750 l 5
 450.877929688 695 l 5
 300.877929688 695 l 5
 313.575195312 750 l 5
EndSplineSet
Fore
SplineSet
90 750 m 1
 215 750 l 1
 215 645 l 1
 90 645 l 1
 90 750 l 1
-50 105 m 1
 125 105 l 1
 125 0 l 1
 -50 0 l 1
 -50 105 l 1
215 105 m 1
 370 105 l 1
 370 0 l 1
 215 0 l 1
 215 105 l 1
417 395 m 5
 513 395 577 461 577 560 c 0
 577 609 558 645 502 645 c 1
 517 750 l 1
 708 750 777 660 777 560 c 0
 777 380 598 290 417 290 c 1
 417 395 l 5
212 750 m 1
 402 750 l 1
 242 0 l 1
 52 0 l 1
 212 750 l 1
247 395 m 1
 417 395 l 1
 417 290 l 1
 247 290 l 1
 247 395 l 1
337 750 m 1
 517 750 l 1
 502 645 l 1
 337 645 l 1
 337 750 l 1
EndSplineSet
EndChar

StartChar: Q
Encoding: 81 81 28
Width: 910
Flags: HMW
LayerCount: 2
Fore
SplineSet
218 -105 m 1
 218 -117 231 -116 231 -162 c 0
 231 -219 181 -250 134 -250 c 0
 87 -250 40 -222 40 -164 c 1
 218 -105 l 1
516 -169.864257812 m 1
 516 -154.864257812 503 -160.864257812 503 -114.864257812 c 0
 503 -57.8642578125 556 -26.8642578125 603 -26.8642578125 c 0
 650 -26.8642578125 694 -53.8642578125 694 -107.864257812 c 1
 516 -169.864257812 l 1
233 -98 m 0
 222 -98 218 -99 218 -105 c 1
 40 -164 l 1
 40 -49 170 -27 249 -27 c 0
 448.536132812 -27 463.615234375 -178.864257812 501 -178.864257812 c 0
 513 -178.864257812 516 -175.864257812 516 -169.864257812 c 1
 694 -107.864257812 l 1
 694 -232.864257812 569 -249.864257812 490 -249.864257812 c 0
 280.463867188 -249.864257812 290.384765625 -98 233 -98 c 0
525 770 m 1
 738 770 875 653 875 450 c 0
 875 197 678 -10 385 -10 c 5
 385 90 l 5
 579 90 670 323 670 445 c 0
 670 597 629 670 525 670 c 1
 525 770 l 1
385 -10 m 5
 172 -10 35 97 35 300 c 0
 35 553 232 770 525 770 c 1
 525 670 l 1
 331 670 240 427 240 305 c 0
 240 153 281 90 385 90 c 5
 385 -10 l 5
EndSplineSet
EndChar

StartChar: R
Encoding: 82 82 29
Width: 865
Flags: HMW
LayerCount: 2
Back
SplineSet
425.080078125 405 m 5
 501.080078125 405 585.700195312 451 608.556640625 550 c 4
 631.412109375 649 568.032226562 695 492.032226562 695 c 5
 504.729492188 750 l 5
 685.729492188 750 733.952148438 660 708.556640625 550 c 4
 683.161132812 440 606.615234375 364 415.615234375 364 c 5
 425.080078125 405 l 5
314.729492188 750 m 5
 504.729492188 750 l 5
 492.032226562 695 l 5
 302.032226562 695 l 5
 314.729492188 750 l 5
235.080078125 405 m 5
 445.080078125 405 l 5
 431.228515625 345 l 5
 221.228515625 345 l 5
 235.080078125 405 l 5
-50.7236328125 55 m 5
 59.2763671875 55 l 5
 46.5791015625 0 l 5
 -63.4208984375 0 l 5
 -50.7236328125 55 l 5
109.729492188 750 m 5
 219.729492188 750 l 5
 207.032226562 695 l 5
 97.0322265625 695 l 5
 109.729492188 750 l 5
219.729492188 750 m 5
 314.729492188 750 l 5
 141.579101562 0 l 5
 46.5791015625 0 l 5
 219.729492188 750 l 5
154.276367188 55 m 5
 264.276367188 55 l 5
 251.579101562 0 l 5
 141.579101562 0 l 5
 154.276367188 55 l 5
715.971679688 84 m 5
 688.274414062 29 635.270507812 -10 569.270507812 -10 c 4
 336.301757812 -10 637.485351562 345 381.228515625 345 c 5
 409.5390625 381 l 5
 752.833984375 381 477.966796875 57 610.73828125 57 c 4
 631.73828125 57 666.81640625 66 689.896484375 101 c 5
 715.971679688 84 l 5
EndSplineSet
Fore
SplineSet
195 105 m 1
 370 105 l 1
 370 0 l 1
 195 0 l 1
 195 105 l 1
80 750 m 1
 215 750 l 1
 215 645 l 1
 80 645 l 1
 80 750 l 1
-30 105 m 1
 115 105 l 1
 85 0 l 1
 -30 0 l 1
 -30 105 l 1
469 430 m 1
 545 430 619 501 619 580 c 0
 619 619 595 645 539 645 c 1
 539 750 l 1
 720 750 809 700 809 580 c 0
 809 440 660 364 469 364 c 1
 469 430 l 1
337 750 m 1
 539 750 l 1
 539 645 l 1
 337 645 l 1
 337 750 l 1
257 430 m 1
 489 430 l 1
 489 320 l 1
 257 320 l 1
 257 430 l 1
212 750 m 1
 402 750 l 1
 242 0 l 1
 52 0 l 1
 212 750 l 1
855 103 m 1
 790 18 715 0 639 0 c 0
 565 0 489 22 489 97 c 0
 489 147 512 173 512 223 c 0
 512 278 502 320 419 320 c 1
 479 381 l 1
 631 381 715 347 715 266 c 0
 715 210 684 183 684 156 c 0
 684 134 693 121 716 121 c 0
 742 121 759 136 784 166 c 1
 855 103 l 1
EndSplineSet
Substitution2: "'ss01' Style Set 1 lookup 2-1" uniFFFD
EndChar

StartChar: S
Encoding: 83 83 30
Width: 709
Flags: HMW
LayerCount: 2
Back
SplineSet
598.525390625 595 m 1
 567.747070312 505 l 1
 595.220703125 624 533.844726562 709 419.844726562 709 c 0
 303.844726562 709 247.146484375 654 231.216796875 585 c 1
 134.291015625 555 l 1
 166.612304688 695 290.618164062 760 421.618164062 760 c 0
 537.618164062 760 619.303710938 685 598.525390625 595 c 1
567.747070312 505 m 5
 624.309570312 750 l 5
 679.309570312 750 l 5
 622.747070312 505 l 5
 567.747070312 505 l 5
559.684570312 652 m 21
 624.309570312 750 l 13
 587.37109375 590 l 5
 559.684570312 652 l 21
134.291015625 555 m 1
 231.216796875 585 l 1
 182.734375 375 658.518554688 530 584.641601562 210 c 1
 488.869140625 185 l 1
 541.96875 415 67.3388671875 265 134.291015625 555 c 1
58.09765625 160 m 1
 90.0302734375 255 l 1
 67.173828125 156 120.469726562 36 264.469726562 36 c 0
 400.469726562 36 472.939453125 116 488.869140625 185 c 1
 584.641601562 210 l 1
 552.319335938 70 433.696289062 -15 262.696289062 -15 c 0
 126.696289062 -15 39.6279296875 80 58.09765625 160 c 1
90.0302734375 255 m 5
 30.0048828125 -5 l 5
 -24.9951171875 -5 l 5
 35.0302734375 255 l 5
 90.0302734375 255 l 5
96.9384765625 103 m 21
 30.0048828125 -5 l 13
 69.251953125 165 l 5
 96.9384765625 103 l 21
EndSplineSet
Fore
SplineSet
587 455 m 1
 654 750 l 1
 749 750 l 1
 687 455 l 1
 587 455 l 1
559 652 m 17
 654 750 l 9
 627 580 l 1
 559 652 l 17
130 305 m 1
 60 -5 l 1
 -40 -5 l 1
 35 305 l 1
 130 305 l 1
157 93 m 17
 60 -5 l 9
 79 165 l 1
 157 93 l 17
67 185 m 1
 130 305 l 1
 100 136 208 69 322 69 c 0
 457 69 492 131 492 190 c 1
 672 225 l 1
 672 75 553 -25 322 -25 c 0
 126 -25 67 97 67 185 c 1
95 528 m 5
 272 570 l 5
 272 429 672 485 672 225 c 5
 492 190 l 5
 492 341 95 278 95 528 c 5
664 547 m 1
 587 455 l 1
 602 571 552 679 418 679 c 0
 339 679 272 632 272 570 c 1
 95 528 l 1
 95 658 208 775 412 775 c 0
 558 775 654 660 664 547 c 1
EndSplineSet
EndChar

StartChar: T
Encoding: 84 84 31
Width: 779
Flags: HMW
LayerCount: 2
Back
SplineSet
552.032226562 700 m 13
 722.032226562 700 l 5
 674.704101562 495 l 21
 710.950195312 652 689.032226562 700 552.032226562 700 c 13
722.032226562 700 m 5
 772.032226562 700 l 5
 724.704101562 495 l 5
 674.704101562 495 l 5
 722.032226562 700 l 5
317.032226562 700 m 21
 180.032226562 700 135.950195312 652 99.7041015625 495 c 13
 147.032226562 700 l 5
 317.032226562 700 l 21
147.032226562 700 m 5
 99.7041015625 495 l 5
 49.7041015625 495 l 5
 97.0322265625 700 l 5
 147.032226562 700 l 5
398.575195312 750 m 5
 387.032226562 700 l 5
 97.0322265625 700 l 5
 108.575195312 750 l 5
 398.575195312 750 l 5
333.122070312 55 m 5
 463.122070312 55 l 5
 450.424804688 0 l 5
 320.424804688 0 l 5
 333.122070312 55 l 5
493.575195312 750 m 5
 783.575195312 750 l 5
 772.032226562 700 l 5
 482.032226562 700 l 5
 493.575195312 750 l 5
108.122070312 55 m 5
 238.122070312 55 l 5
 225.424804688 0 l 5
 95.4248046875 0 l 5
 108.122070312 55 l 5
398.575195312 750 m 5
 493.575195312 750 l 5
 320.424804688 0 l 5
 225.424804688 0 l 5
 398.575195312 750 l 5
EndSplineSet
Fore
SplineSet
101 105 m 1
 246 105 l 1
 246 0 l 1
 101 0 l 1
 101 105 l 1
391 105 m 1
 546 105 l 1
 546 0 l 1
 391 0 l 1
 391 105 l 1
607 650 m 9
 733 650 l 1
 675 455 l 21
 708 612 704 650 607 650 c 9
749 750 m 1
 839 750 l 1
 770 455 l 1
 675 455 l 5
 749 750 l 1
317 650 m 17
 180 650 170 612 130 455 c 9
 160 650 l 1
 317 650 l 17
197 750 m 1
 130 455 l 1
 40 455 l 1
 107 750 l 1
 197 750 l 1
382 750 m 1
 377 650 l 1
 160 650 l 1
 177 750 l 1
 382 750 l 1
532 750 m 1
 769 750 l 1
 733 650 l 1
 527 650 l 1
 532 750 l 1
372 750 m 1
 562 750 l 1
 402 0 l 1
 212 0 l 1
 372 750 l 1
EndSplineSet
EndChar

StartChar: U
Encoding: 85 85 32
Width: 875
Flags: HMW
LayerCount: 2
Back
SplineSet
207.311523438 750 m 5
 302.311523438 750 l 5
 200.729492188 310 l 5
 103.420898438 300 l 5
 207.311523438 750 l 5
717.311523438 750 m 5
 777.311523438 750 l 5
 673.420898438 300 l 5
 613.420898438 300 l 5
 717.311523438 750 l 5
302.311523438 750 m 5
 422.311523438 750 l 5
 409.614257812 695 l 5
 289.614257812 695 l 5
 302.311523438 750 l 5
97.3115234375 750 m 5
 207.311523438 750 l 5
 194.614257812 695 l 5
 84.6142578125 695 l 5
 97.3115234375 750 l 5
777.311523438 750 m 5
 887.311523438 750 l 5
 874.614257812 695 l 5
 764.614257812 695 l 5
 777.311523438 750 l 5
592.311523438 750 m 5
 717.311523438 750 l 5
 704.614257812 695 l 5
 579.614257812 695 l 5
 592.311523438 750 l 5
613.420898438 300 m 5
 673.420898438 300 l 5
 623.784179688 85 518.698242188 -15 320.698242188 -15 c 4
 107.698242188 -15 61.1728515625 117 103.420898438 300 c 5
 200.729492188 310 l 5
 165.637695312 158 185.549804688 45 349.549804688 45 c 4
 503.549804688 45 571.403320312 118 613.420898438 300 c 5
EndSplineSet
Fore
SplineSet
610 750 m 1
 750 750 l 1
 750 645 l 1
 610 645 l 1
 610 750 l 1
825 750 m 1
 935 750 l 1
 935 645 l 1
 805 645 l 1
 825 750 l 1
80 750 m 1
 210 750 l 1
 210 645 l 1
 80 645 l 1
 80 750 l 1
380 750 m 1
 490 750 l 1
 490 645 l 1
 350 645 l 1
 380 750 l 1
739 750 m 1
 849 750 l 1
 739 300 l 2
 689 97 587 -25 369 -25 c 0
 162.212890625 -25 83 67 83 182 c 0
 83 219 88.8671875 258.262695312 99 300 c 2
 209 750 l 1
 399 750 l 1
 289 310 l 2
 278.213867188 267.155273438 276 236 276 200 c 4
 276 135 309.13671875 88 404 88 c 0
 498 88 587 128 629 300 c 2
 739 750 l 1
EndSplineSet
EndChar

StartChar: V
Encoding: 86 86 33
Width: 885
Flags: HMW
LayerCount: 2
Back
SplineSet
412.609375 695 m 5
 82.609375 695 l 5
 95.306640625 750 l 5
 425.306640625 750 l 5
 412.609375 695 l 5
942.609375 695 m 5
 662.609375 695 l 5
 675.306640625 750 l 5
 955.306640625 750 l 5
 942.609375 695 l 5
414.853515625 55 m 5
 328.693359375 -15 l 5
 185.306640625 750 l 5
 295.306640625 750 l 5
 414.853515625 55 l 5
383.693359375 -15 m 5
 328.693359375 -15 l 5
 820.306640625 750 l 5
 875.306640625 750 l 5
 383.693359375 -15 l 5
EndSplineSet
Fore
SplineSet
275 -15 m 1
 275 55 l 1
 353 55 l 1
 353 -15 l 1
 275 -15 l 1
470 645 m 1
 60 645 l 1
 60 750 l 1
 470 750 l 1
 470 645 l 1
970 645 m 1
 640 645 l 1
 640 750 l 1
 970 750 l 1
 970 645 l 1
448 55 m 5
 275 -15 l 1
 130 750 l 1
 333 750 l 5
 448 55 l 5
445 -15 m 1
 325 -15 l 1
 810 750 l 1
 935 750 l 1
 445 -15 l 1
EndSplineSet
EndChar

StartChar: W
Encoding: 87 87 34
Width: 1249
Flags: HMW
LayerCount: 2
Back
SplineSet
1235.03222656 695 m 5
 955.032226562 695 l 5
 967.729492188 750 l 5
 1247.72949219 750 l 5
 1235.03222656 695 l 5
753.276367188 55 m 5
 668.270507812 -10 l 5
 607.729492188 750 l 5
 707.729492188 750 l 5
 753.276367188 55 l 5
727.270507812 -10 m 5
 668.270507812 -10 l 5
 1097.72949219 750 l 5
 1155.72949219 750 l 5
 727.270507812 -10 l 5
385.032226562 695 m 5
 55.0322265625 695 l 5
 67.7294921875 750 l 5
 397.729492188 750 l 5
 385.032226562 695 l 5
805.032226562 695 m 5
 525.032226562 695 l 5
 537.729492188 750 l 5
 817.729492188 750 l 5
 805.032226562 695 l 5
332.276367188 55 m 5
 247.270507812 -10 l 5
 157.729492188 750 l 5
 257.729492188 750 l 5
 332.276367188 55 l 5
307.270507812 -10 m 5
 247.270507812 -10 l 5
 643.104492188 652 l 5
 701.104492188 652 l 5
 307.270507812 -10 l 5
EndSplineSet
Fore
SplineSet
1334 645 m 1
 1030 645 l 1
 1030 750 l 1
 1334 750 l 1
 1334 645 l 1
890 85 m 1
 726 -10 l 1
 640 750 l 1
 814 750 l 1
 890 85 l 1
843 -10 m 1
 726 -10 l 1
 1185 750 l 1
 1288 720 l 5
 843 -10 l 1
440 645 m 1
 60 645 l 1
 60 750 l 1
 440 750 l 1
 440 645 l 1
901 645 m 1
 561 645 l 1
 561 750 l 1
 901 750 l 1
 901 645 l 1
418 75 m 1
 255 -10 l 1
 150 750 l 1
 335 750 l 1
 418 75 l 1
368 -10 m 1
 255 -10 l 1
 686 642 l 1
 776 602 l 1
 368 -10 l 1
EndSplineSet
EndChar

StartChar: X
Encoding: 88 88 35
Width: 850
Flags: HMW
LayerCount: 2
Back
SplineSet
435.461914062 377 m 5
 367.461914062 377 l 5
 742.114257812 748 l 5
 807.114257812 748 l 5
 435.461914062 377 l 5
37.4248046875 0 m 5
 -30.5751953125 0 l 5
 396.696289062 417 l 5
 461.696289062 417 l 5
 37.4248046875 0 l 5
426.122070312 55 m 5
 756.122070312 55 l 5
 743.424804688 0 l 5
 413.424804688 0 l 5
 426.122070312 55 l 5
-93.8779296875 55 m 5
 206.122070312 55 l 5
 193.424804688 0 l 5
 -106.575195312 0 l 5
 -93.8779296875 55 l 5
418.877929688 695 m 5
 88.8779296875 695 l 5
 101.575195312 750 l 5
 431.575195312 750 l 5
 418.877929688 695 l 5
868.877929688 695 m 5
 568.877929688 695 l 5
 581.575195312 750 l 5
 881.575195312 750 l 5
 868.877929688 695 l 5
679.424804688 0 m 5
 559.424804688 0 l 5
 161.575195312 750 l 5
 277.575195312 750 l 5
 679.424804688 0 l 5
EndSplineSet
Fore
SplineSet
532 382 m 1
 399 382 l 1
 796 748 l 1
 931 748 l 1
 532 382 l 1
84 0 m 1
 -54 0 l 1
 390 417 l 1
 520 407 l 1
 84 0 l 1
440 105 m 5
 840 105 l 1
 840 0 l 1
 440 0 l 5
 440 105 l 5
-70 105 m 1
 280 105 l 1
 280 0 l 1
 -70 0 l 1
 -70 105 l 1
485 645 m 1
 95 645 l 1
 95 750 l 1
 485 750 l 1
 485 645 l 1
935 645 m 1
 605 645 l 1
 605 750 l 1
 935 750 l 1
 935 645 l 1
803 0 m 1
 587 0 l 1
 128 750 l 1
 339 750 l 1
 803 0 l 1
EndSplineSet
EndChar

StartChar: Y
Encoding: 89 89 36
Width: 810
Flags: HMW
LayerCount: 2
Back
SplineSet
161.122070312 55 m 5
 271.122070312 55 l 5
 258.424804688 0 l 5
 148.424804688 0 l 5
 161.122070312 55 l 5
366.122070312 55 m 5
 486.122070312 55 l 5
 473.424804688 0 l 5
 353.424804688 0 l 5
 366.122070312 55 l 5
339.228515625 350 m 5
 434.228515625 350 l 5
 353.424804688 0 l 5
 258.424804688 0 l 5
 339.228515625 350 l 5
416.609375 317 m 5
 347.609375 317 l 5
 727.114257812 748 l 5
 797.114257812 748 l 5
 416.609375 317 l 5
393.877929688 695 m 5
 63.8779296875 695 l 5
 76.5751953125 750 l 5
 406.575195312 750 l 5
 393.877929688 695 l 5
848.877929688 695 m 5
 548.877929688 695 l 5
 561.575195312 750 l 5
 861.575195312 750 l 5
 848.877929688 695 l 5
429.534179688 334 m 5
 333.684570312 300 l 5
 136.575195312 750 l 5
 246.575195312 750 l 5
 429.534179688 334 l 5
EndSplineSet
Fore
SplineSet
154 105 m 1
 289 105 l 1
 289 0 l 1
 154 0 l 1
 154 105 l 1
444 105 m 1
 589 105 l 1
 589 0 l 1
 444 0 l 1
 444 105 l 1
335 350 m 1
 525 350 l 1
 445 0 l 1
 255 0 l 1
 335 350 l 1
510 307 m 1
 401 322 l 1
 751 748 l 1
 879 748 l 1
 510 307 l 1
450 645 m 5
 60 645 l 1
 60 750 l 1
 450 750 l 5
 450 645 l 5
895 645 m 1
 585 645 l 1
 585 750 l 1
 895 750 l 1
 895 645 l 1
499 334 m 1
 331 270 l 1
 95 750 l 1
 300 750 l 1
 499 334 l 1
EndSplineSet
EndChar

StartChar: Z
Encoding: 90 90 37
Width: 745
Flags: HMW
LayerCount: 2
Back
SplineSet
338.877929688 695 m 17
 201.877929688 695 158.950195312 652 127.321289062 515 c 9
 168.877929688 695 l 1
 338.877929688 695 l 17
371.122070312 55 m 17
 508.122070312 55 551.049804688 98 587.295898438 255 c 9
 541.122070312 55 l 1
 371.122070312 55 l 17
583.877929688 695 m 1
 698.877929688 695 l 1
 46.1220703125 55 l 1
 -68.8779296875 55 l 1
 583.877929688 695 l 1
541.122070312 55 m 1
 587.295898438 255 l 1
 637.295898438 255 l 1
 591.122070312 55 l 1
 541.122070312 55 l 1
127.321289062 515 m 1
 77.3212890625 515 l 1
 118.877929688 695 l 1
 168.877929688 695 l 1
 127.321289062 515 l 1
-68.8779296875 55 m 1
 591.122070312 55 l 1
 578.424804688 0 l 1
 -81.5751953125 0 l 1
 -68.8779296875 55 l 1
711.575195312 750 m 1
 698.877929688 695 l 1
 118.877929688 695 l 1
 131.575195312 750 l 1
 711.575195312 750 l 1
EndSplineSet
Fore
SplineSet
165 105 m 5
 -55 105 l 1
 -55 135 l 1
 165 135 l 5
 165 105 l 5
755 615 m 1
 535 615 l 1
 535 645 l 1
 755 645 l 1
 755 615 l 1
405 105 m 17
 542 105 585 148 625 305 c 9
 614 105 l 1
 405 105 l 17
585 0 m 1
 625 305 l 1
 725 305 l 1
 675 0 l 1
 585 0 l 1
355 645 m 17
 218 645 175 602 140 465 c 9
 170 645 l 1
 355 645 l 17
535 645 m 1
 755 615 l 1
 165 105 l 5
 -55 135 l 1
 535 645 l 1
140 465 m 1
 40 465 l 1
 90 750 l 1
 196 750 l 1
 140 465 l 1
-55 105 m 1
 625 105 l 1
 645 0 l 1
 -55 0 l 1
 -55 105 l 1
755 750 m 1
 755 645 l 1
 155 645 l 1
 190 750 l 1
 755 750 l 1
EndSplineSet
EndChar

StartChar: a
Encoding: 97 97 38
Width: 739
VWidth: 1155
Flags: HMW
LayerCount: 2
Back
SplineSet
656 163 m 5
 630 67 559 -15 458 -15 c 4
 411 -15 377 13 377 63 c 4
 377 68 378 79 379 85 c 6
 391.076171875 182 l 5
 436 263 l 5
 431.358398438 359 l 5
 468 520 l 5
 600 520 l 5
 497 109 l 6
 495.639648438 103.307617188 495 96 495 91 c 4
 495 80 500 72 513 72 c 4
 547 72 575 110 603 176 c 5
 656 163 l 5
442 330 m 0
 442 172 353 -15 182 -15 c 0
 93 -15 10 40 10 180 c 0
 10 410 173 534 292 534 c 0
 413 534 442 452 442 330 c 0
398 320 m 0
 398 404 381 463 320 463 c 0
 236 463 150 354 150 180 c 0
 150 106 175 59 227 59 c 0
 318 59 398 206 398 320 c 0
636 163 m 1
 610 67 539 -15 438 -15 c 0
 391 -15 357 13 357 63 c 0
 357 68 358 79 359 85 c 2
 371.076171875 182 l 1
 416 263 l 1
 411.358398438 359 l 1
 448 520 l 1
 580 520 l 1
 477 109 l 2
 475.639648438 103.307617188 475 96 475 91 c 0
 475 80 480 72 493 72 c 0
 527 72 555 110 583 176 c 1
 636 163 l 1
EndSplineSet
Fore
SplineSet
636 520 m 1
 547 134 l 2
 545.599609375 128.094726562 544 119 544 114 c 0
 544 103 548 100 558 100 c 0
 584 100 610 130 646 191 c 1
 719 168 l 1
 663 38 567 -20 476 -20 c 0
 409 -20 370 5 370 65 c 0
 370 84 374.448242188 104.684570312 378 120 c 2
 389.484375 171 l 1
 419.9765625 262 l 1
 432.045898438 360 l 1
 468.076171875 520 l 1
 636 520 l 1
462 330 m 4
 462 172 373 -20 202 -20 c 4
 93 -20 10 40 10 180 c 4
 10 410 173 539 312 539 c 4
 433 539 462 452 462 330 c 4
418 320 m 4
 418 404 388 445 337 445 c 4
 263 445 190 334 190 190 c 4
 190 116 210 74 257 74 c 4
 338 74 418 206 418 320 c 4
EndSplineSet
EndChar

StartChar: b
Encoding: 98 98 39
Width: 634
VWidth: 1155
Flags: HMW
LayerCount: 2
Back
SplineSet
132.141601562 260 m 4
 105.822265625 146 138.8125 42 229.8125 42 c 4
 313.8125 42 393.822265625 146 420.141601562 260 c 4
 446.4609375 374 414.470703125 478 330.470703125 478 c 4
 239.470703125 478 158.4609375 374 132.141601562 260 c 4
103.141601562 260 m 4
 140.541992188 422 239.245117188 529 360.245117188 529 c 4
 479.245117188 529 559.388671875 430 520.141601562 260 c 4
 480.893554688 90 354.806640625 -10 235.806640625 -10 c 4
 114.806640625 -10 65.7412109375 98 103.141601562 260 c 4
-95.1865234375 55 m 5
 -5.1865234375 55 l 5
 -17.8837890625 0 l 5
 -107.883789062 0 l 5
 -95.1865234375 55 l 5
72.193359375 780 m 5
 162.193359375 780 l 5
 149.495117188 725 l 5
 59.4951171875 725 l 5
 72.193359375 780 l 5
162.193359375 780 m 5
 252.193359375 780 l 5
 72.1162109375 0 l 5
 -17.8837890625 0 l 5
 162.193359375 780 l 5
EndSplineSet
Fore
SplineSet
594 330 m 1
 414 350 l 1
 414 414 408 453 364 453 c 0
 303 453 238 374 211 260 c 1
 172 260 l 1
 209 432 296 539 407 539 c 0
 526 539 594 470 594 330 c 1
41 780 m 1
 161 780 l 1
 161 695 l 1
 41 695 l 1
 41 780 l 1
161 780 m 1
 331 780 l 1
 184 140 l 1
 10 120 l 1
 161 780 l 1
10 120 m 1
 184 140 l 1
 194 86 209 65 244 65 c 4
 328 65 414 196 414 350 c 1
 594 330 l 1
 594 140 451 -20 242 -20 c 0
 91 -20 40 48 10 120 c 1
EndSplineSet
EndChar

StartChar: c
Encoding: 99 99 40
Width: 620
VWidth: 1155
Flags: HMW
LayerCount: 2
Back
SplineSet
195 190 m 4
 195 116 210 70 259 70 c 4
 348 70 423 176 423 330 c 4
 423 404 408 450 359 450 c 4
 270 450 195 344 195 190 c 4
10 180 m 4
 10 390 168 540 379 540 c 4
 530 540 608 460 608 340 c 4
 608 130 450 -20 239 -20 c 4
 88 -20 10 60 10 180 c 4
EndSplineSet
Fore
SplineSet
10 180 m 5
 195 190 l 5
 195 116 213 69 262 69 c 4
 325 69 375 113 412 173 c 5
 511 173 l 5
 462 80 386 -20 235 -20 c 4
 136 -20 10 10 10 180 c 5
580 377 m 5
 444 441 l 5
 444 453 421 468 387 468 c 4
 296 468 195 354 195 190 c 5
 10 180 l 5
 10 410 186 540 367 540 c 4
 499 540 580 469 580 377 c 5
444 441 m 5
 580 377 l 5
 580 299 521 270 467 270 c 4
 429 270 385 301 385 358 c 4
 385 416 444 424 444 441 c 5
EndSplineSet
EndChar

StartChar: d
Encoding: 100 100 41
Width: 739
VWidth: 1155
Flags: HMW
LayerCount: 2
Back
SplineSet
442 330 m 4
 442 172 353 -15 182 -15 c 4
 93 -15 10 40 10 180 c 4
 10 410 173 534 292 534 c 4
 413 534 442 452 442 330 c 4
398 320 m 4
 398 404 381 463 320 463 c 4
 236 463 150 354 150 180 c 4
 150 106 175 59 227 59 c 4
 318 59 398 206 398 320 c 4
636 163 m 5
 600 53 529 -15 438 -15 c 4
 391 -15 357 13 357 63 c 4
 357 68 358 79 359 85 c 6
 371.076171875 182 l 5
 426 263 l 5
 411.358398438 359 l 5
 506 780 l 5
 638 780 l 5
 477 109 l 6
 475.68359375 103.349609375 475 96 475 91 c 4
 475 80 480 72 493 72 c 4
 529 72 557 115 583 176 c 5
 636 163 l 5
508 780 m 5
 508 715 l 5
 403 715 l 5
 403 780 l 5
 508 780 l 5
EndSplineSet
Fore
SplineSet
393.076171875 780 m 5
 533.076171875 780 l 5
 533.076171875 685 l 5
 393.076171875 685 l 5
 393.076171875 780 l 5
701 780 m 5
 547 134 l 6
 545.599609375 128.094726562 544 119 544 114 c 4
 544 103 548 100 558 100 c 4
 584 100 610 130 646 191 c 5
 719 168 l 5
 663 38 567 -20 476 -20 c 4
 409 -20 370 5 370 65 c 4
 370 84 374.448242188 104.684570312 378 120 c 6
 389.484375 171 l 5
 419.9765625 262 l 5
 432.045898438 360 l 5
 533.076171875 780 l 5
 701 780 l 5
462 330 m 4
 462 172 373 -20 202 -20 c 4
 93 -20 10 40 10 180 c 4
 10 410 173 539 312 539 c 4
 433 539 462 452 462 330 c 4
418 320 m 4
 418 404 388 445 337 445 c 4
 263 445 190 334 190 190 c 4
 190 116 210 74 257 74 c 4
 338 74 418 206 418 320 c 4
EndSplineSet
EndChar

StartChar: e
Encoding: 101 101 42
Width: 590
VWidth: 1155
Flags: HMW
LayerCount: 2
Back
SplineSet
10 180 m 5
 195 190 l 5
 195 116 213 69 262 69 c 4
 325 69 375 113 412 173 c 5
 511 173 l 5
 462 80 386 -20 235 -20 c 4
 136 -20 10 10 10 180 c 5
580 377 m 5
 444 441 l 5
 444 453 421 468 387 468 c 4
 296 468 195 354 195 190 c 5
 10 180 l 5
 10 410 186 540 367 540 c 4
 499 540 580 469 580 377 c 5
444 441 m 5
 580 377 l 5
 580 299 521 270 467 270 c 4
 429 270 385 301 385 358 c 4
 385 416 444 424 444 441 c 5
EndSplineSet
Fore
SplineSet
570 422 m 5
 570 242 242 212 131 212 c 4
 70.0712890625 212 129 276 129 276 c 5
 268 276 399 329 399 433 c 5
 570 422 l 5
10 180 m 5
 190 170 l 5
 190 116 208 69 267 69 c 4
 320 69 399 118 428 173 c 5
 526 173 l 5
 480 78 387 -20 216 -20 c 4
 85 -20 10 50 10 180 c 5
570 422 m 5
 399 433 l 5
 399 452 392 462 367 462 c 4
 298 462 190 354 190 170 c 5
 10 180 l 5
 10 410 181 540 382 540 c 4
 504 540 570 504 570 422 c 5
EndSplineSet
EndChar

StartChar: f
Encoding: 102 102 43
Width: 450
VWidth: 1155
Flags: HMW
LayerCount: 2
Back
SplineSet
545.56640625 679 m 5
 458.5703125 718 l 5
 461.340820312 730 446.803710938 745 394.803710938 745 c 4
 314.803710938 745 270.104492188 677 240.784179688 550 c 5
 155.86328125 572 l 5
 186.107421875 703 273.193359375 790 403.193359375 790 c 4
 504.193359375 790 558.725585938 736 545.56640625 679 c 5
424.411132812 661 m 4
 431.336914062 691 453.953125 698 458.5703125 718 c 5
 545.56640625 679 l 5
 535.639648438 636 506.329101562 613 471.329101562 613 c 4
 436.329101562 613 417.946289062 633 424.411132812 661 c 4
-53.4951171875 55 m 5
 36.5048828125 55 l 5
 23.806640625 0 l 5
 -66.193359375 0 l 5
 -53.4951171875 55 l 5
126.504882812 55 m 5
 246.504882812 55 l 5
 233.806640625 0 l 5
 113.806640625 0 l 5
 126.504882812 55 l 5
53.8583984375 520 m 5
 373.858398438 520 l 5
 361.161132812 465 l 5
 41.1611328125 465 l 5
 53.8583984375 520 l 5
155.86328125 572 m 5
 240.784179688 550 l 5
 113.806640625 0 l 5
 23.806640625 0 l 5
 155.86328125 572 l 5
EndSplineSet
Fore
SplineSet
476 710 m 5
 660 664 l 5
 660 586 601 547 547 547 c 4
 499 547 452 578 452 635 c 4
 452 671 476 698 476 710 c 5
145 572 m 5
 315 550 l 5
 170 -150 l 5
 0 -150 l 5
 145 572 l 5
660 664 m 5
 476 710 l 5
 476 716 461 720 444 720 c 4
 384 720 345 677 315 550 c 5
 145 572 l 5
 175 703 282 800 442 800 c 4
 583 800 660 731 660 664 c 5
45 520 m 5
 435 520 l 5
 435 435 l 5
 45 435 l 5
 45 520 l 5
EndSplineSet
EndChar

StartChar: g
Encoding: 103 103 44
Width: 609
VWidth: 1155
Flags: HMW
LayerCount: 2
Back
SplineSet
482 633 m 4
 458 633 419 563 419 492 c 5
 364 514 l 5
 374 595 430 697 520 697 c 4
 581 697 614 663 614 611 c 4
 614 567 581 536 541 536 c 4
 503 536 475 560 475 595 c 4
 475 613 489.071289062 633 482 633 c 4
168.912109375 22 m 1
 74.9091796875 -4 57.671875 -70 50.2841796875 -102 c 0
 34.5849609375 -170 74.658203125 -213 180.658203125 -213 c 0
 264.658203125 -213 361.5078125 -179 378.129882812 -107 c 1
 454.901367188 -82 l 1
 429.275390625 -193 313.806640625 -260 153.806640625 -260 c 0
 10.806640625 -260 -71.9580078125 -220 -52.333984375 -135 c 0
 -31.3251953125 -44 71.603515625 12 116.603515625 12 c 1
 168.912109375 22 l 1
30.2255859375 84 m 1
 103.3046875 106 l 1
 94.7626953125 69 136.762695312 69 191.762695312 69 c 0
 216.762695312 69 274.993164062 70 302.993164062 70 c 0
 397.993164062 70 486.299804688 54 454.901367188 -82 c 1
 378.129882812 -107 l 1
 390.596679688 -53 366.754882812 -9 301.754882812 -9 c 0
 280.754882812 -9 209.754882812 -9 187.754882812 -9 c 0
 97.7548828125 -9 8.986328125 -8 30.2255859375 84 c 1
244.927734375 178 m 1
 201.927734375 178 111.154296875 140 103.3046875 106 c 1
 30.2255859375 84 l 1
 45.0009765625 148 136.313476562 197 251.313476562 197 c 1
 244.927734375 178 l 1
83.482421875 345 m 0
 108.877929688 455 204.193359375 530 325.193359375 530 c 0
 446.193359375 530 506.877929688 455 481.482421875 345 c 0
 456.086914062 235 360.771484375 160 239.771484375 160 c 0
 118.771484375 160 58.0869140625 235 83.482421875 345 c 0
178.482421875 345 m 0
 161.3984375 271 170.006835938 200 249.006835938 200 c 0
 328.006835938 200 369.3984375 271 386.482421875 345 c 0
 403.56640625 419 394.958007812 490 315.958007812 490 c 0
 236.958007812 490 195.56640625 419 178.482421875 345 c 0
EndSplineSet
Fore
SplineSet
497 623 m 0
 473 623 429 563 429 492 c 1
 364 514 l 1
 374 595 440 697 530 697 c 0
 611 697 654 653 654 601 c 0
 654 547 621 516 571 516 c 0
 523 516 490 540 490 585 c 0
 490 603 504.071289062 623 497 623 c 0
225 290 m 0
 225 246 235 225 264 225 c 0
 333 225 373 321 373 415 c 0
 373 459 363 475 334 475 c 0
 265 475 225 384 225 290 c 0
50 295 m 0
 50 425 183 540 364 540 c 0
 495 540 548 485 548 395 c 0
 548 255 405 160 264 160 c 0
 153 160 50 185 50 295 c 0
230 178 m 1
 187 178 145 170 145 146 c 1
 17 74 l 1
 17 158 117 197 232 197 c 1
 230 178 l 1
17 74 m 1
 145 146 l 1
 145 129 157 119 202 119 c 0
 227 119 315 120 343 120 c 0
 448 120 520 74 520 -32 c 5
 379 -67 l 1
 379 -33 335 -19 290 -19 c 0
 269 -19 208 -19 186 -19 c 0
 96 -19 17 2 17 74 c 1
174 22 m 1
 86 -4 70 -50 70 -92 c 0
 70 -158 105 -175 171 -175 c 0
 255 -175 379 -142 379 -67 c 1
 520 -32 l 5
 520 -183 320 -260 150 -260 c 0
 27 -260 -75 -240 -75 -145 c 0
 -75 -54 55 27 100 27 c 1
 174 22 l 1
EndSplineSet
EndChar

StartChar: h
Encoding: 104 104 45
Width: 736
VWidth: 1155
Flags: HMW
LayerCount: 2
Back
SplineSet
407.612304688 358 m 1
 500.151367188 369 l 1
 414.9609375 0 l 1
 324.9609375 0 l 1
 407.612304688 358 l 1
407.612304688 358 m 1
 424.696289062 432 405.162109375 473 339.162109375 473 c 0
 241.162109375 473 159.076171875 386 135.296875 283 c 1
 106.296875 283 l 1
 129.845703125 385 212.321289062 530 375.321289062 530 c 0
 502.321289062 530 524.854492188 476 500.151367188 369 c 1
 407.612304688 358 l 1
427.659179688 55 m 1
 517.659179688 55 l 1
 504.9609375 0 l 1
 414.9609375 0 l 1
 427.659179688 55 l 1
248.659179688 55 m 1
 338.659179688 55 l 1
 325.9609375 0 l 1
 235.9609375 0 l 1
 248.659179688 55 l 1
82.6591796875 55 m 1
 172.659179688 55 l 1
 159.9609375 0 l 1
 69.9609375 0 l 1
 82.6591796875 55 l 1
160.0390625 780 m 1
 250.0390625 780 l 1
 69.9609375 0 l 1
 -20.0390625 0 l 1
 160.0390625 780 l 1
70.0390625 780 m 1
 160.0390625 780 l 1
 147.340820312 725 l 1
 57.3408203125 725 l 1
 70.0390625 780 l 1
-97.3408203125 55 m 1
 -7.3408203125 55 l 1
 -20.0390625 0 l 1
 -110.0390625 0 l 1
 -97.3408203125 55 l 1
EndSplineSet
Fore
SplineSet
602 341 m 1
 432.076171875 330 l 1
 451.076171875 394 453 433 417 433 c 0
 346 433 236 287 205 153 c 1
 156 153 l 1
 209 365 320 539 491 539 c 0
 580 539 640 481 602 341 c 1
602 341 m 5
 541 130 l 6
 539.599609375 124.094726562 539 120 539 115 c 4
 539 104 542 100 553 100 c 4
 579 100 608 130 642 191 c 5
 716 168 l 5
 660 48 569 -20 468 -20 c 4
 401 -20 365 13 365 63 c 4
 365 82 367.729492188 99.865234375 372 115 c 6
 432.076171875 330 l 5
 602 341 l 5
74 780 m 1
 179 780 l 1
 179 695 l 1
 74 695 l 1
 74 780 l 1
179 780 m 1
 349 780 l 1
 170 0 l 1
 0 0 l 1
 179 780 l 1
EndSplineSet
EndChar

StartChar: i
Encoding: 105 105 46
Width: 416
VWidth: 1155
Flags: HMW
LayerCount: 2
Back
SplineSet
166.877929688 700 m 4
 174.49609375 733 207.729492188 760 240.729492188 760 c 4
 273.729492188 760 294.49609375 733 286.877929688 700 c 4
 279.258789062 667 246.025390625 640 213.025390625 640 c 4
 180.025390625 640 159.258789062 667 166.877929688 700 c 4
-52.0322265625 55 m 5
 37.9677734375 55 l 5
 25.2705078125 0 l 5
 -64.7294921875 0 l 5
 -52.0322265625 55 l 5
127.967773438 55 m 5
 217.967773438 55 l 5
 205.270507812 0 l 5
 115.270507812 0 l 5
 127.967773438 55 l 5
55.3212890625 520 m 5
 145.321289062 520 l 5
 132.624023438 465 l 5
 42.6240234375 465 l 5
 55.3212890625 520 l 5
145.321289062 520 m 5
 235.321289062 520 l 5
 115.270507812 0 l 5
 25.2705078125 0 l 5
 145.321289062 520 l 5
EndSplineSet
Fore
SplineSet
156 700 m 0
 156 757 201 795 256 795 c 0
 311 795 356 757 356 700 c 0
 356 643 311 605 256 605 c 0
 201 605 156 643 156 700 c 0
20 520 m 1
 160 520 l 1
 160 435 l 5
 20 435 l 5
 20 520 l 1
313 520 m 1
 224 134 l 2
 222.599609375 128.094726562 221 119 221 114 c 0
 221 103 225 100 235 100 c 0
 261 100 287 130 323 191 c 1
 396 168 l 1
 340 38 244 -20 153 -20 c 0
 86 -20 47 5 47 65 c 0
 47 84 51.4482421875 104.684570312 55 120 c 2
 145.076171875 520 l 1
 313 520 l 1
EndSplineSet
EndChar

StartChar: j
Encoding: 106 106 47
Width: 409
VWidth: 1155
Flags: HMW
LayerCount: 2
Back
SplineSet
-53.513671875 -125 m 4
 -53.513671875 -160 -82.513671875 -167 -82.513671875 -187 c 5
 -180.513671875 -143 l 5
 -180.513671875 -105 -151.513671875 -69 -111.513671875 -69 c 4
 -77.513671875 -69 -53.513671875 -92 -53.513671875 -125 c 4
-180.513671875 -143 m 5
 -82.513671875 -187 l 5
 -82.513671875 -200 -76.513671875 -216 -49.513671875 -216 c 4
 41.486328125 -216 62.486328125 -10 92.486328125 104 c 5
 162.486328125 11 l 5
 122.486328125 -139 81.486328125 -260 -59.513671875 -260 c 4
 -148.513671875 -260 -180.513671875 -205 -180.513671875 -143 c 5
182.486328125 520 m 5
 272.486328125 520 l 5
 162.486328125 11 l 5
 92.486328125 104 l 5
 182.486328125 520 l 5
203.376953125 700 m 0
 210.99609375 733 244.229492188 760 277.229492188 760 c 0
 310.229492188 760 330.99609375 733 323.376953125 700 c 0
 315.758789062 667 282.525390625 640 249.525390625 640 c 0
 216.525390625 640 195.758789062 667 203.376953125 700 c 0
94.8203125 520 m 1
 184.8203125 520 l 1
 172.123046875 465 l 1
 82.123046875 465 l 1
 94.8203125 520 l 1
EndSplineSet
Fore
SplineSet
209 700 m 0
 209 757 254 795 309 795 c 0
 364 795 409 757 409 700 c 0
 409 643 364 605 309 605 c 0
 254 605 209 643 209 700 c 0
73 520 m 1
 213 520 l 1
 213 435 l 5
 73 435 l 5
 73 520 l 1
-53 -170 m 1
 -237 -124 l 1
 -237 -46 -178 -7 -124 -7 c 0
 -76 -7 -29 -38 -29 -95 c 0
 -29 -131 -53 -158 -53 -170 c 1
-237 -124 m 1
 -53 -170 l 1
 -53 -176 -38 -180 -21 -180 c 0
 69 -180 75 -24 105 103 c 1
 248 0 l 1
 213 -141 141 -260 -19 -260 c 0
 -160 -260 -237 -191 -237 -124 c 1
198 520 m 1
 368 520 l 1
 248 0 l 1
 105 103 l 1
 198 520 l 1
EndSplineSet
EndChar

StartChar: k
Encoding: 107 107 48
Width: 689
VWidth: 1155
Flags: HMW
LayerCount: 2
Back
SplineSet
576 520 m 5
 487 134 l 6
 485.599609375 128.094726562 484 119 484 114 c 4
 484 103 488 100 498 100 c 4
 524 100 550 130 586 191 c 5
 659 168 l 5
 603 38 507 -20 416 -20 c 4
 349 -20 310 5 310 65 c 4
 310 84 314.448242188 104.684570312 318 120 c 6
 329.484375 171 l 5
 359.9765625 262 l 5
 372.045898438 360 l 5
 408.076171875 520 l 5
 576 520 l 5
441 428 m 0
 441 460 460 462 460 478 c 1
 542 439 l 1
 542 405 519 384 489 384 c 0
 461 384 441 403 441 428 c 0
80 780 m 1
 170 780 l 1
 170 725 l 1
 80 725 l 1
 80 780 l 1
170 780 m 1
 260 780 l 1
 80 0 l 1
 -10 0 l 1
 170 780 l 1
108 343 m 1
 150 324 l 1
 150 314 157 299 199 299 c 0
 236 299 282.526367188 303.568359375 308 392 c 0
 333.373046875 480.08203125 388 530 448 530 c 0
 509 530 542 491 542 439 c 1
 460 478 l 1
 460 488 453 490 441 490 c 0
 406 490 367.950195312 454.78125 345 370 c 0
 319.963867188 277.51171875 242 262 202 262 c 0
 131 262 108 291 108 343 c 1
EndSplineSet
Fore
SplineSet
659 168 m 1
 605 38 507 -20 415 -20 c 0
 347.6953125 -20 311.005859375 3.5537109375 311.005859375 63.38671875 c 0
 311.005859375 68.5849609375 312.287109375 79.056640625 313 85 c 2
 322 160 l 2
 329.07421875 218.951171875 337 288 263 288 c 0
 222 288 199 254 186 200 c 1
 166 240 l 1
 203 342 245 359 286 359 c 4
 425 359 502.396484375 284.959960938 489 151 c 2
 485 122 l 2
 484.49609375 119.731445312 484.225585938 115.548828125 484.225585938 113.536132812 c 0
 484.225585938 103.141601562 488.619140625 100 500 100 c 0
 515 100 543 115 586 191 c 1
 659 168 l 1
471 408 m 0
 471 440 494 455 494 466 c 1
 652 424 l 1
 652 370 609 329 559 329 c 0
 511 329 471 363 471 408 c 0
65 780 m 1
 210 780 l 1
 210 695 l 1
 65 695 l 1
 65 780 l 1
170 780 m 1
 340 780 l 1
 160 0 l 1
 -10 0 l 1
 170 780 l 1
168 378 m 1
 210 379 l 1
 210 369 217 294 259 294 c 0
 296 294 317.526367188 318.568359375 347 397 c 0
 379.244140625 482.8046875 418 540 508 540 c 0
 569 540 652 506 652 424 c 1
 494 466 l 1
 494 474 488 475 483 475 c 0
 463 475 437.544921875 457.71484375 408 375 c 0
 374.963867188 282.51171875 332 232 262 232 c 0
 191 232 168 326 168 378 c 1
EndSplineSet
EndChar

StartChar: l
Encoding: 108 108 49
Width: 379
VWidth: 1155
Flags: HMW
LayerCount: 2
Back
SplineSet
247 163 m 5
 209 63 140 -10 69 -10 c 4
 22 -10 -2 13 -2 63 c 4
 -2 68 -1.2734375 79.0615234375 0 85 c 6
 149 780 l 5
 241 780 l 5
 88 89 l 6
 86.7353515625 83.2900390625 86 76 86 71 c 4
 86 60 91 52 104 52 c 4
 138 52 186 110 209 176 c 5
 247 163 l 5
51 780 m 5
 151 780 l 5
 151 725 l 5
 51 725 l 5
 51 780 l 5
EndSplineSet
Fore
SplineSet
38 780 m 5
 178 780 l 5
 178 685 l 5
 38 685 l 5
 38 780 l 5
331 780 m 5
 187 134 l 6
 185.599609375 128.094726562 184 119 184 114 c 4
 184 103 188 100 198 100 c 4
 224 100 250 130 286 191 c 5
 359 168 l 5
 303 38 207 -20 116 -20 c 4
 49 -20 10 5 10 65 c 4
 10 84 14.4482421875 104.684570312 18 120 c 6
 163.076171875 780 l 5
 331 780 l 5
EndSplineSet
EndChar

StartChar: m
Encoding: 109 109 50
Width: 1071
VWidth: 1155
Flags: HMW
LayerCount: 2
Back
SplineSet
528 330 m 5
 418 330 l 5
 438 414 447 461 393 461 c 4
 322 461 211 287 180 153 c 5
 131 153 l 5
 184 365 305 534 426 534 c 4
 515 534 563 470 528 330 c 5
40 520 m 5
 135 520 l 5
 135 455 l 5
 40 455 l 5
 40 520 l 5
135 520 m 5
 265 520 l 5
 145 0 l 5
 15 0 l 5
 135 520 l 5
857 341 m 5
 727.076171875 330 l 5
 752.076171875 414 757 461 703 461 c 4
 632 461 540 287 509 153 c 5
 460 153 l 5
 513 365 605 534 736 534 c 4
 825 534 892 481 857 341 c 5
857 341 m 5
 792 119 l 6
 790.599609375 113.094726562 790 106 790 101 c 4
 790 90 795 82 808 82 c 4
 844 82 872 115 898 176 c 5
 951 163 l 5
 915 43 824 -15 743 -15 c 4
 696 -15 658 8 658 58 c 4
 658 77 660.729492188 94.865234375 665 110 c 6
 727.076171875 330 l 5
 857 341 l 5
418 330 m 5
 548 330 l 5
 475 0 l 5
 335 0 l 5
 418 330 l 5
EndSplineSet
Fore
SplineSet
135 520 m 1
 295 520 l 1
 256 360 l 1
 135 380 l 1
 135 520 l 1
135 520 m 1
 268 360 l 1
 185 0 l 1
 15 0 l 1
 135 520 l 1
937 341 m 1
 876 130 l 2
 874.599609375 124.094726562 874 120 874 115 c 0
 874 104 877 100 888 100 c 0
 914 100 943 130 977 191 c 1
 1051 168 l 1
 995 48 904 -20 803 -20 c 0
 736 -20 700 13 700 63 c 0
 700 82 702.729492188 99.865234375 707 115 c 2
 767.076171875 330 l 1
 937 341 l 1
588 330 m 1
 438 330 l 1
 456 404 465 441 423 441 c 0
 362 441 251 287 220 153 c 1
 171 153 l 1
 224 365 325 534 476 534 c 0
 575 534 623 470 588 330 c 1
30 520 m 1
 135 520 l 1
 135 435 l 5
 30 435 l 5
 30 520 l 1
937 341 m 1
 767.076171875 330 l 1
 792.076171875 414 789 441 753 441 c 0
 682 441 600 287 569 153 c 1
 510 153 l 1
 563 365 665 534 796 534 c 0
 905 534 972 481 937 341 c 1
438 330 m 1
 608 330 l 1
 535 0 l 1
 355 0 l 1
 438 330 l 1
EndSplineSet
EndChar

StartChar: n
Encoding: 110 110 51
Width: 751
VWidth: 1155
Flags: HMW
LayerCount: 2
Back
SplineSet
135 520 m 1
 305 520 l 1
 185 0 l 1
 15 0 l 1
 135 520 l 1
646 520 m 5
 557 134 l 6
 555.599609375 128.094726562 554 119 554 114 c 4
 554 103 558 100 568 100 c 4
 594 100 620 130 656 191 c 5
 729 168 l 5
 673 38 577 -20 486 -20 c 4
 419 -20 380 5 380 65 c 4
 380 84 384.448242188 104.684570312 388 120 c 6
 399.484375 171 l 5
 429.9765625 262 l 5
 442.045898438 360 l 5
 478.076171875 520 l 5
 646 520 l 5
EndSplineSet
Fore
SplineSet
135 520 m 5
 295 520 l 5
 256 360 l 5
 135 380 l 5
 135 520 l 5
617 341 m 5
 447.076171875 330 l 5
 466.076171875 394 468 433 432 433 c 4
 361 433 251 287 220 153 c 5
 171 153 l 5
 224 365 335 539 506 539 c 4
 595 539 655 481 617 341 c 5
617 341 m 5
 556 130 l 6
 554.599609375 124.094726562 554 120 554 115 c 4
 554 104 557 100 568 100 c 4
 594 100 623 130 657 191 c 5
 731 168 l 5
 675 48 584 -20 483 -20 c 4
 416 -20 380 13 380 63 c 4
 380 82 382.729492188 99.865234375 387 115 c 6
 447.076171875 330 l 5
 617 341 l 5
30 520 m 5
 135 520 l 5
 135 435 l 5
 30 435 l 5
 30 520 l 5
135 520 m 5
 268 360 l 5
 185 0 l 5
 15 0 l 5
 135 520 l 5
EndSplineSet
EndChar

StartChar: o
Encoding: 111 111 52
Width: 648
VWidth: 1155
Flags: HMW
LayerCount: 2
Fore
SplineSet
195 170 m 4
 195 106 210 70 259 70 c 0
 348 70 423 196 423 350 c 4
 423 414 408 450 359 450 c 0
 270 450 195 324 195 170 c 4
10 180 m 0
 10 390 168 540 379 540 c 0
 530 540 608 460 608 340 c 0
 608 130 450 -20 239 -20 c 0
 88 -20 10 60 10 180 c 0
EndSplineSet
EndChar

StartChar: p
Encoding: 112 112 53
Width: 676
VWidth: 1155
Flags: HMW
LayerCount: 2
Back
SplineSet
-55 -261 m 5
 99 385 l 6
 100.400390625 390.905273438 102 400 102 405 c 4
 102 416 98 419 88 419 c 4
 62 419 36 389 0 328 c 5
 -73 351 l 5
 -17 481 79 539 170 539 c 4
 237 539 276 514 276 454 c 4
 276 435 271.551757812 414.315429688 268 399 c 6
 256.515625 348 l 5
 226.0234375 257 l 5
 213.954101562 159 l 5
 112.923828125 -261 l 5
 -55 -261 l 5
173 190 m 0
 173 318 272 535 433 535 c 0
 522 535 605 480 605 340 c 0
 605 110 452 -14 333 -14 c 0
 212 -14 173 68 173 190 c 0
217 200 m 0
 217 116 244 57 305 57 c 0
 389 57 465 166 465 340 c 0
 465 414 440 461 388 461 c 0
 307 461 217 324 217 200 c 0
EndSplineSet
Fore
SplineSet
24 520 m 1
 129 520 l 1
 129 435 l 1
 24 435 l 1
 24 520 l 1
129 520 m 1
 289 520 l 1
 254.806640625 371 l 0
 230.250976562 264 l 0
 216.384765625 160 l 0
 123 -250 l 5
 -47 -250 l 5
 129 520 l 1
184 189 m 0
 184 347 273 539 444 539 c 0
 553 539 636 479 636 339 c 0
 636 109 473 -20 334 -20 c 0
 213 -20 184 67 184 189 c 0
228 199 m 0
 228 115 258 74 309 74 c 0
 383 74 456 185 456 329 c 0
 456 403 436 445 389 445 c 0
 308 445 228 313 228 199 c 0
EndSplineSet
EndChar

StartChar: q
Encoding: 113 113 54
Width: 626
VWidth: 1155
Flags: HMW
LayerCount: 2
Back
SplineSet
446 520 m 5
 534 520 l 5
 360 -250 l 5
 268 -250 l 5
 364.62890625 168 l 5
 401 256 l 5
 405.545898438 345 l 5
 446 520 l 5
360 -250 m 5
 360 -195 l 5
 450 -195 l 5
 450 -250 l 5
 360 -250 l 5
432 320 m 4
 432 182 323 -10 182 -10 c 4
 93 -10 10 40 10 180 c 4
 10 380 183 529 292 529 c 4
 403 529 432 442 432 320 c 4
398 320 m 4
 398 404 381 478 300 478 c 4
 216 478 110 324 110 180 c 4
 110 96 146 42 210 42 c 4
 301 42 398 206 398 320 c 4
EndSplineSet
Fore
SplineSet
457 -165 m 1
 562 -165 l 1
 562 -250 l 1
 457 -250 l 1
 457 -165 l 1
476 520 m 1
 636 520 l 1
 457 -250 l 1
 287 -250 l 1
 374.408203125 126 l 1
 414.861328125 257 l 5
 443.221679688 379 l 1
 476 520 l 1
462 330 m 0
 462 172 373 -20 202 -20 c 0
 93 -20 10 40 10 180 c 0
 10 410 173 539 312 539 c 0
 433 539 462 452 462 330 c 0
418 320 m 0
 418 404 388 445 337 445 c 0
 263 445 190 334 190 190 c 0
 190 116 210 74 257 74 c 0
 338 74 418 206 418 320 c 0
EndSplineSet
EndChar

StartChar: r
Encoding: 114 114 55
Width: 588
VWidth: 1155
Flags: HMW
LayerCount: 2
Back
SplineSet
359.404296875 466 m 5
 361.712890625 476 358.021484375 486 334.021484375 486 c 4
 266.021484375 486 192.934570312 386 169.155273438 283 c 5
 145.155273438 283 l 5
 166.395507812 375 225.1796875 530 366.1796875 530 c 4
 422.1796875 530 465.869140625 494 452.478515625 436 c 5
 359.404296875 466 l 5
-63.482421875 55 m 5
 26.517578125 55 l 5
 13.8203125 0 l 5
 -76.1796875 0 l 5
 -63.482421875 55 l 5
43.87109375 520 m 5
 133.87109375 520 l 5
 121.173828125 465 l 5
 31.173828125 465 l 5
 43.87109375 520 l 5
133.87109375 520 m 5
 223.87109375 520 l 5
 103.8203125 0 l 5
 13.8203125 0 l 5
 133.87109375 520 l 5
116.517578125 55 m 5
 206.517578125 55 l 5
 193.8203125 0 l 5
 103.8203125 0 l 5
 116.517578125 55 l 5
323.70703125 411 m 4
 332.017578125 447 356.633789062 454 359.404296875 466 c 5
 452.478515625 436 l 5
 442.782226562 394 407.932617188 360 372.932617188 360 c 4
 338.932617188 360 316.549804688 380 323.70703125 411 c 4
EndSplineSet
Fore
SplineSet
30 520 m 1
 135 520 l 1
 135 435 l 1
 30 435 l 1
 30 520 l 1
395 440 m 1
 395 444 394 448 385 448 c 0
 347 448 262 326 227 183 c 1
 183 183 l 1
 203 275 261 543 467 543 c 4
 556 543 598 489 598 431 c 1
 395 440 l 1
135 520 m 1
 285 520 l 1
 249 364 l 1
 260.692382812 328 l 1
 185 0 l 1
 15 0 l 1
 135 520 l 1
390 389 m 0
 390 433 395 433 395 440 c 1
 598 431 l 1
 598 359 561 305 481 305 c 0
 427 305 390 338 390 389 c 0
EndSplineSet
EndChar

StartChar: s
Encoding: 115 115 56
Width: 556
VWidth: 1155
Flags: HMW
LayerCount: 2
Back
SplineSet
116 152 m 4
 116 109 72 115 72 95 c 5
 0 126 l 5
 0 169 29 203 64 203 c 4
 94 203 116 184 116 152 c 4
354 390 m 4
 354 429 384 426 384 446 c 5
 461 411 l 5
 461 371 439 347 407 347 c 4
 375 347 354 365 354 390 c 4
83 380 m 5
 169 406 l 5
 169 306 424 325 424 152 c 5
 341 133 l 5
 341 250 83 234 83 380 c 5
0 126 m 5
 72 95 l 5
 72 57 130 34 187 34 c 4
 287 34 341 82 341 133 c 5
 424 152 l 5
 424 48 314 -12 187 -12 c 4
 78 -12 0 46 0 126 c 5
461 411 m 5
 384 446 l 5
 384 477 338 487 296 487 c 4
 233 487 169 462 169 406 c 5
 83 380 l 5
 83 489 213 532 296 532 c 4
 394 532 461 487 461 411 c 5
EndSplineSet
Fore
SplineSet
181 162 m 0
 181 109 135 105 135 90 c 1
 -10 116 l 1
 -10 189 39 231 94 231 c 0
 147 231 181 209 181 162 c 0
364 390 m 0
 364 439 398 440 398 450 c 1
 546 411 l 1
 546 351 509 312 447 312 c 0
 400 312 364 345 364 390 c 0
83 380 m 1
 249 416 l 1
 249 316 504 302 504 139 c 1
 321 130 l 1
 321 207 83 234 83 380 c 1
-10 116 m 1
 135 90 l 1
 135 71 162 58 209 58 c 0
 279 58 321 89 321 130 c 1
 504 139 l 1
 504 35 384 -22 217 -22 c 0
 78 -22 -10 46 -10 116 c 1
546 411 m 1
 398 450 l 1
 398 458 368 472 326 472 c 0
 283 472 249 452 249 416 c 1
 83 380 l 1
 83 479 193 542 346 542 c 4
 484 542 546 467 546 411 c 1
EndSplineSet
EndChar

StartChar: t
Encoding: 116 116 57
Width: 420
VWidth: 1155
Flags: HMW
LayerCount: 2
Back
SplineSet
10.001953125 58 m 1
 144.001953125 101 l 1
 144.001953125 90 149.001953125 82 162.001953125 82 c 0
 198.001953125 82 224.001953125 115 250.001953125 176 c 1
 303.001953125 163 l 1
 267.001953125 43 176.001953125 -15 95.001953125 -15 c 0
 48.001953125 -15 10.001953125 8 10.001953125 58 c 1
15.00390625 520 m 1
 360.00390625 520 l 1
 360.00390625 455 l 1
 15.00390625 455 l 1
 15.00390625 520 l 1
144.001953125 101 m 1
 10.001953125 58 l 1
 10.001953125 66 10.8828125 77.0283203125 13.001953125 86 c 2
 137.001953125 611 l 1
 193.001953125 611 245.001953125 638 245.001953125 638 c 1
 273.001953125 638 l 1
 148.001953125 129 l 2
 145.053710938 116.994140625 144.001953125 110 144.001953125 101 c 1
EndSplineSet
Fore
SplineSet
10 58 m 1
 184 114 l 1
 184 103 189 95 202 95 c 0
 228 95 253 130 285 191 c 1
 363 173 l 1
 317 53 236 -20 115 -20 c 0
 48 -20 10 8 10 58 c 1
15.001953125 520 m 1
 400.001953125 520 l 1
 400.001953125 435 l 1
 15.001953125 435 l 1
 15.001953125 520 l 1
184 114 m 1
 10 58 l 1
 10 66 10.880859375 77.0283203125 13 86 c 2
 136 611 l 5
 242 611 269 658 269 658 c 5
 317 658 l 5
 188 139 l 2
 185.051757812 126.994140625 184 123 184 114 c 1
EndSplineSet
Substitution2: "'ss01' Style Set 1 lookup 2-1" uniFFF0
EndChar

StartChar: u
Encoding: 117 117 58
Width: 826
VWidth: 1155
Flags: HMW
LayerCount: 2
Back
SplineSet
724 163 m 5
 698 67 627 -15 526 -15 c 4
 479 -15 445 13 445 63 c 4
 445 68 446 79 447 85 c 6
 459.076171875 182 l 5
 504 263 l 5
 499.358398438 359 l 5
 536 520 l 5
 668 520 l 5
 565 109 l 6
 563.639648438 103.307617188 563 96 563 91 c 4
 563 80 568 72 581 72 c 4
 615 72 643 110 671 176 c 5
 724 163 l 5
104 179 m 5
 233.923828125 190 l 5
 208.923828125 106 204 59 258 59 c 4
 349 59 470 233 501 367 c 5
 550 367 l 5
 497 155 366 -14 225 -14 c 4
 136 -14 69 39 104 179 c 5
104 179 m 5
 169 401 l 6
 170.400390625 406.905273438 171 414 171 419 c 4
 171 430 166 438 153 438 c 4
 117 438 89 405 63 344 c 5
 10 357 l 5
 46 477 137 535 218 535 c 4
 265 535 303 512 303 462 c 4
 303 443 300.270507812 425.134765625 296 410 c 6
 233.923828125 190 l 5
 104 179 l 5
EndSplineSet
Fore
SplineSet
723 520 m 1
 634 134 l 2
 632.599609375 128.094726562 631 119 631 114 c 0
 631 103 635 100 645 100 c 0
 671 100 697 130 733 191 c 1
 806 168 l 1
 750 38 654 -20 563 -20 c 0
 496 -20 467 5 467 65 c 0
 467 84 471.448242188 104.684570312 475 120 c 2
 491.6640625 194 l 1
 498.328125 268 l 1
 555.076171875 520 l 1
 723 520 l 1
124 179 m 1
 293.923828125 190 l 1
 274.923828125 126 273 87 309 87 c 0
 380 87 490 233 521 367 c 1
 570 367 l 1
 517 155 406 -19 235 -19 c 0
 146 -19 86 39 124 179 c 1
124 179 m 5
 185 390 l 6
 186.400390625 395.905273438 187 400 187 405 c 4
 187 416 184 420 173 420 c 4
 147 420 118 390 84 329 c 5
 10 352 l 5
 66 472 157 540 258 540 c 4
 325 540 361 507 361 457 c 4
 361 438 358.270507812 420.134765625 354 405 c 6
 293.923828125 190 l 5
 124 179 l 5
EndSplineSet
EndChar

StartChar: v
Encoding: 118 118 59
Width: 606
VWidth: 1155
Flags: HMW
LayerCount: 2
Back
SplineSet
185 535 m 5
 220 488 l 5
 198 476 150 453 150 405 c 4
 150 312 204 291 204 147 c 4
 204 128 199 89 198 68 c 5
 48 22 l 5
 50 44 67 100 67 120 c 4
 67 217 10 279 10 373 c 4
 10 453 85 481 185 535 c 5
395 387 m 4
 350 387 321 420 321 458 c 4
 321 508 360 534 414 534 c 5
 458 428 l 5
 437 428 437 387 395 387 c 4
48 22 m 5
 299.78125 149.950195312 477 245 477 383 c 4
 477 425 468 428 458 428 c 5
 414 534 l 5
 474 534 546 500 546 389 c 4
 546 219 336.08203125 93.373046875 101 -12 c 5
 48 22 l 5
EndSplineSet
Fore
SplineSet
205 540 m 1
 245 483 l 1
 223 471 195 448 195 400 c 0
 195 307 244 291 244 147 c 0
 244 128 239 89 238 68 c 1
 48 22 l 1
 50 44 67 80 67 120 c 4
 67 217 10 289 10 383 c 4
 10 463 85 486 205 540 c 1
415 362 m 0
 360 362 331 390 331 448 c 0
 331 508 390 539 454 539 c 1
 488 408 l 1
 477 408 467 362 415 362 c 0
48 22 m 1
 329.78125 169.950195312 507 245 507 373 c 0
 507 395 498 408 488 408 c 1
 454 539 l 1
 514 539 596 490 596 379 c 0
 596 199 436.08203125 133.373046875 111 -22 c 1
 48 22 l 1
EndSplineSet
EndChar

StartChar: w
Encoding: 119 119 60
Width: 1019
VWidth: 1155
Flags: HMW
LayerCount: 2
Back
SplineSet
861 382 m 4
 816 382 787 415 787 453 c 4
 787 503 826 529 880 529 c 5
 924 423 l 5
 903 423 903 382 861 382 c 4
677 43 m 5
 819 43 906 295 906 383 c 4
 906 405 905 419 895 419 c 5
 880 529 l 5
 928 529 963 494 963 393 c 4
 963 283 873 -10 668 -10 c 5
 677 43 l 5
99 357 m 1
 137 457 206 530 277 530 c 0
 324 530 348 507 348 457 c 0
 348 452 346.279296875 436.475585938 344 428 c 2
 280 190 l 1
 190 179 l 1
 256 424 l 2
 258.524414062 433.372070312 260 444 260 449 c 0
 260 460 255 468 242 468 c 0
 208 468 160 410 137 344 c 1
 99 357 l 1
190 179 m 1
 280 190 l 1
 255 106 265 42 329 42 c 0
 420 42 486 173 513 287 c 1
 552 287 l 1
 515 115 427 -9 316 -9 c 0
 227 -9 155 39 190 179 c 1
566 520 m 1
 656 520 l 1
 580 189 l 1
 487 178 l 1
 566 520 l 1
822 413 m 0
 795 413 773 435 773 470 c 0
 773 506 799 529 840 529 c 1
 855 419 l 1
 848 419 856 413 822 413 c 0
637 43 m 1
 779 43 866 295 866 383 c 0
 866 405 865 419 855 419 c 1
 840 529 l 1
 888 529 923 494 923 393 c 0
 923 283 833 -10 628 -10 c 1
 637 43 l 1
487 178 m 1
 580 189 l 1
 560 105 573 43 637 43 c 1
 628 -10 l 1
 539 -10 485 38 487 178 c 1
EndSplineSet
Fore
SplineSet
134 179 m 1
 303.923828125 190 l 1
 284.923828125 126 283 87 319 87 c 0
 390 87 469 233 498 367 c 5
 550 367 l 1
 497 155 416 -19 245 -19 c 0
 156 -19 96 39 134 179 c 1
134 179 m 1
 195 390 l 2
 196.400390625 395.905273438 197 400 197 405 c 0
 197 416 194 420 183 420 c 0
 157 420 128 390 94 329 c 1
 20 352 l 1
 76 472 167 540 268 540 c 0
 335 540 371 507 371 457 c 0
 371 438 368.270507812 420.134765625 364 405 c 2
 303.923828125 190 l 1
 134 179 l 1
850 367 m 0
 805 367 772 395 772 443 c 0
 772 503 831 534 885 534 c 1
 902 387 l 1
 891 387 892 367 850 367 c 0
531 520 m 5
 716 520 l 1
 640 189 l 1
 457 178 l 5
 531 520 l 5
692 68 m 1
 824 68 906 280 906 378 c 0
 906 384 905 387 902 387 c 1
 885 534 l 1
 943 534 999 480 999 399 c 0
 999 259 903 -20 678 -20 c 1
 692 68 l 1
467 188 m 1
 640 189 l 1
 620 105 628 68 692 68 c 1
 678 -20 l 1
 589 -20 455 8 467 188 c 1
EndSplineSet
EndChar

StartChar: x
Encoding: 120 120 61
Width: 721
VWidth: 1155
Flags: HMW
LayerCount: 2
Back
SplineSet
330 278 m 5
 360.373046875 376.08203125 445 535 562 535 c 4
 643 535 671 476 671 424 c 5
 569 463 l 5
 569 473 562 475 550 475 c 4
 493 475 397.950195312 336.78125 370 242 c 5
 330 278 l 5
530 403 m 4
 530 445 569 447 569 463 c 5
 671 424 l 5
 671 380 638 339 598 339 c 4
 550 339 530 368 530 403 c 4
331 242 m 5
 300.626953125 143.91796875 201 -15 84 -15 c 4
 3 -15 -25 44 -25 96 c 5
 77 57 l 5
 77 47 84 45 96 45 c 4
 153 45 268.049804688 183.21875 296 278 c 5
 331 242 l 5
116 117 m 4
 116 75 77 73 77 57 c 5
 -25 96 l 5
 -25 140 8 181 48 181 c 4
 96 181 116 152 116 117 c 4
EndSplineSet
Fore
SplineSet
331 242 m 1
 280.626953125 143.91796875 216 -20 79 -20 c 0
 -22 -20 -70 44 -70 116 c 1
 77 64 l 1
 77 54 84 52 96 52 c 0
 153 52 228.049804688 183.21875 276 278 c 1
 331 242 l 1
111 137 m 0
 111 85 77 80 77 64 c 1
 -70 116 l 1
 -70 170 -27 221 23 221 c 0
 81 221 111 182 111 137 c 0
330 278 m 1
 380.373046875 376.08203125 445 540 582 540 c 0
 683 540 731 476 731 404 c 1
 584 456 l 1
 584 466 577 468 565 468 c 0
 508 468 432.950195312 336.78125 385 242 c 1
 330 278 l 1
550 383 m 0
 550 435 584 440 584 456 c 1
 731 404 l 1
 731 350 688 299 638 299 c 0
 580 299 550 338 550 383 c 0
617 154 m 1
 584 64 506 -20 414 -20 c 0
 316.6953125 -20 290.8203125 25.2294921875 278.005859375 73.38671875 c 4
 255.07421875 159.565429688 226.092773438 320.100585938 199.774414062 392.463867188 c 0
 195.879882812 403.171875 187.380859375 420 171 420 c 0
 150 420 129 398 102 342 c 1
 34 372 l 1
 67 462 134 542 236 542 c 0
 333.3046875 542 355.1796875 496.770507812 367.994140625 448.61328125 c 0
 392.046875 358.224609375 412.801757812 220.942382812 448.225585938 123.536132812 c 0
 452.120117188 112.828125 462.619140625 98 478 98 c 0
 502 98 529 131 558 187 c 1
 617 154 l 1
EndSplineSet
EndChar

StartChar: y
Encoding: 121 121 62
Width: 763
VWidth: 1155
Flags: HMW
LayerCount: 2
Back
SplineSet
114 179 m 5
 175 390 l 6
 176.400390625 395.905273438 177 400 177 405 c 4
 177 416 174 420 163 420 c 4
 137 420 108 390 74 329 c 5
 0 352 l 5
 56 472 147 540 248 540 c 4
 315 540 351 507 351 457 c 4
 351 438 348.270507812 420.134765625 344 405 c 6
 283.923828125 190 l 5
 114 179 l 5
573 397 m 0
 538 397 509 430 509 468 c 0
 509 513 548 544 602 544 c 1
 628 418 l 1
 607 418 615 397 573 397 c 0
110 -205 m 1
 342 -205 636 279 636 407 c 0
 636 415 633 418 628 418 c 1
 602 544 l 1
 670 544 705 506 705 425 c 0
 705 245 375 -265 110 -265 c 1
 110 -205 l 1
320.005859375 -106.61328125 m 1
 267.07421875 -20.4345703125 227.092773438 367.100585938 199.774414062 439.463867188 c 0
 195.75 450.124023438 192.380859375 462 175 462 c 0
 161 462 129 440 110 384 c 1
 61 409 l 1
 94 499 144 537 216 537 c 0
 303.3046875 537 329.706054688 495.353515625 343.994140625 447.61328125 c 0
 371.046875 357.224609375 384.801757812 59.9423828125 450.225585938 -37.4638671875 c 1
 320.005859375 -106.61328125 l 1
98 -82 m 0
 98 -143 36 -140 36 -160 c 1
 -60 -116 l 1
 -60 -60 -21 -13 28 -13 c 0
 68 -13 98 -41 98 -82 c 0
-60 -116 m 1
 36 -160 l 1
 36 -183 67 -205 110 -205 c 1
 110 -265 l 1
 3 -265 -60 -203 -60 -116 c 1
EndSplineSet
Fore
SplineSet
594 373 m 0
 549 373 516 401 516 449 c 0
 516 509 575 540 629 540 c 1
 646 393 l 1
 635 393 636 373 594 373 c 0
119 -183 m 5
 331 -183 650 206 650 384 c 0
 650 390 649 393 646 393 c 1
 629 540 l 1
 687 540 743 486 743 405 c 0
 743 185 405 -265 120 -265 c 1
 119 -183 l 5
315.005859375 -121.61328125 m 1
 222.07421875 14.5654296875 222.092773438 325.100585938 194.774414062 397.463867188 c 0
 190.75 408.124023438 187.380859375 420 170 420 c 0
 146 420 118 385 83 329 c 1
 11 354 l 1
 64 464 134 542 236 542 c 0
 323.3046875 542 359.706054688 495.353515625 373.994140625 447.61328125 c 0
 401.046875 357.224609375 389.801757812 119.942382812 485.225585938 -27.4638671875 c 1
 315.005859375 -121.61328125 l 1
113 -47 m 0
 113 -118 46 -120 46 -140 c 1
 -90 -86 l 1
 -90 -30 -51 37 28 37 c 0
 83 37 113 4 113 -47 c 0
-90 -86 m 1
 46 -140 l 1
 46 -163 76 -183 119 -183 c 1
 120 -265 l 1
 -27 -265 -90 -173 -90 -86 c 1
EndSplineSet
EndChar

StartChar: z
Encoding: 122 122 63
Width: 595
VWidth: 1155
Flags: HMW
LayerCount: 2
Back
SplineSet
80 50 m 5
 -50 30 l 5
 470 470 l 5
 605 495 l 5
 80 50 l 5
560 150 m 5
 526 81 448 -15 338 -15 c 4
 264.186523438 -15 187.7578125 39 142 39 c 4
 94 39 16 7 -16 -15 c 5
 -50 30 l 5
 94 82 222 142 272 142 c 4
 345.813476562 142 375.2421875 110 411 110 c 4
 453 110 486 138 509 185 c 5
 560 150 l 5
21 380 m 5
 55 439 132 535 222 535 c 4
 325.813476562 535 372.2421875 471 428 471 c 4
 476 471 544 513 576 535 c 5
 605 495 l 5
 471 455 358 385 298 385 c 4
 234.186523438 385 218.7578125 423 163 423 c 4
 125 423 91 385 69 349 c 5
 21 380 l 5
EndSplineSet
Fore
SplineSet
80 50 m 1
 -60 40 l 1
 480 470 l 1
 625 485 l 1
 80 50 l 1
605 166 m 1
 561 97 478 -20 348 -20 c 0
 274.186523438 -20 187.7578125 39 142 39 c 0
 94 39 16 7 -16 -15 c 1
 -60 40 l 1
 84 92 242 172 312 172 c 0
 385.813476562 172 405.2421875 140 441 140 c 0
 483 140 506 168 539 215 c 1
 605 166 l 1
-9 375 m 1
 45 434 132 540 222 540 c 0
 325.813476562 540 382.2421875 471 438 471 c 0
 486 471 554 513 586 535 c 1
 625 485 l 1
 491 465 348 355 288 355 c 0
 224.186523438 355 218.7578125 393 163 393 c 0
 125 393 91 365 59 329 c 1
 -9 375 l 1
EndSplineSet
EndChar

StartChar: comma
Encoding: 44 44 65
Width: 255
Flags: HMW
LayerCount: 2
Back
SplineSet
125 24 m 5
 125 -66 27 -156 -63 -156 c 5
 -63 -116 l 5
 -8 -116 82 -49 76 11 c 5
 92.365234375 16.9150390625 96.7646484375 78.1123046875 125 24 c 5
-11 49 m 4
 -11 82 18 108 56 108 c 4
 95 108 125 77 125 24 c 4
 125 9.2919921875 99.0439453125 28.44140625 91 19.107421875 c 4
 67.5068359375 -8.15625 60.2919921875 -10 42 -10 c 4
 9 -10 -11 16 -11 49 c 4
EndSplineSet
Fore
SplineSet
200 49 m 1
 200 -68 77 -156 -43 -156 c 5
 -43 -96 l 5
 32 -96 137 -24 131 36 c 1
 147.365234375 41.9150390625 171.764648438 103.112304688 200 49 c 1
-16 81 m 0
 -16 138 33 183 91 183 c 0
 150 183 200 142 200 49 c 0
 200 34.2919921875 174.043945312 53.44140625 166 44.107421875 c 0
 142.506835938 16.84375 106.291992188 -15 68 -15 c 0
 20 -15 -16 28 -16 81 c 0
EndSplineSet
EndChar

StartChar: exclam
Encoding: 33 33 67
Width: 378
Flags: HMW
LayerCount: 2
Back
SplineSet
234 659 m 4
 182 483 125 358 90 208 c 5
 52 208 l 5
 87 358 86 483 116 659 c 4
 118 666 119 672 120 678 c 4
 131 724 151 758 198 758 c 4
 245 758 250 724 239 678 c 4
 238 672 236 666 234 659 c 4
-25 49 m 4
 -17 82 15 108 48 108 c 4
 81 108 101 82 93 49 c 4
 85 16 53 -10 20 -10 c 4
 -13 -10 -33 16 -25 49 c 4
EndSplineSet
Fore
SplineSet
343 627 m 4
 290 479 225 431 187 265 c 5
 126 265 l 5
 162 411 126.807617188 484.038085938 163 665 c 4
 173 715 203 759 263 759 c 4
 325 759 353 723 353 682 c 4
 353 664 348.651367188 642.78125 343 627 c 4
EndSplineSet
Refer: 1 46 N 1 0 0 1 40 0 2
EndChar

StartChar: quotesingle
Encoding: 39 39 70
Width: 267
Flags: HMW
LayerCount: 2
Fore
SplineSet
164 488 m 1
 106 488 l 1
 98 568 90 615.969726562 90 682 c 0
 90 751 139 778 195 778 c 0
 231 778 277 749 277 697 c 0
 277 628 185 582 164 488 c 1
EndSplineSet
EndChar

StartChar: question
Encoding: 63 63 75
Width: 570
Flags: HMW
LayerCount: 2
Back
SplineSet
139 662 m 5
 139 632 170 631 170 580 c 4
 170 538 137 520 102 520 c 4
 67 520 35 543 35 591 c 5
 139 662 l 5
35 591 m 5
 35 683 129 760 281 760 c 4
 412 760 480 700 480 590 c 5
 389 600 l 5
 389 674 340 713 261 713 c 4
 197 713 139 684 139 662 c 5
 35 591 l 5
245 226.01171875 m 5
 215.454101562 199.176757812 181.159179688 196.23046875 161.236328125 196.23046875 c 4
 100.798828125 196.23046875 65 233.051757812 65 285.01171875 c 4
 65 412.845703125 389 432.737304688 389 600 c 5
 480 590 l 5
 480 362.944335938 135.484375 364.557617188 135.484375 283.689453125 c 4
 135.484375 267.388671875 146.681640625 253.1015625 170.245117188 253.1015625 c 4
 184.125976562 253.1015625 212.297851562 255.977539062 235 283.01171875 c 5
 245 226.01171875 l 5
EndSplineSet
Fore
SplineSet
189 655 m 1
 189 635 250 641 250 570 c 0
 250 508 197 470 142 470 c 0
 87 470 35 513 35 581 c 1
 189 655 l 1
35 581 m 1
 35 683 159 770 321 770 c 0
 472 770 560 700 560 590 c 1
 389 600 l 1
 389 674 350 693 291 693 c 0
 227 693 189 672 189 655 c 1
 35 581 l 1
325 266.01171875 m 1
 275.454101562 239.176757812 241.159179688 236.23046875 221.236328125 236.23046875 c 0
 160.798828125 236.23046875 95 263.051757812 95 335.01171875 c 0
 95 492.845703125 389 432.737304688 389 600 c 1
 560 590 l 1
 560 362.944335938 195.484375 404.557617188 195.484375 343.689453125 c 4
 195.484375 327.388671875 206.681640625 323.1015625 230.245117188 323.1015625 c 0
 244.125976562 323.1015625 282.297851562 325.977539062 315 353.01171875 c 1
 325 266.01171875 l 1
EndSplineSet
Refer: 1 46 N 1 0 0 1 109 0 2
EndChar

StartChar: parenleft
Encoding: 40 40 76
Width: 460
Flags: HMW
LayerCount: 2
Fore
SplineSet
370 -100 m 1
 340 -170 l 5
 137 -108 50 52 50 235 c 0
 50 508 217 730 500 800 c 5
 530 730 l 1
 356 690 245 477 245 235 c 0
 245 83 276 -55 370 -100 c 1
EndSplineSet
EndChar

StartChar: asterisk
Encoding: 42 42 78
Width: 659
VWidth: 1155
Flags: HMW
LayerCount: 2
Fore
SplineSet
364.2890625 520 m 1
 326.2890625 520 l 1
 338.2890625 600 300.2890625 647.969726562 300.2890625 714 c 0
 300.2890625 783 359.2890625 810 405.2890625 810 c 4
 441.2890625 810 487.2890625 781 487.2890625 729 c 0
 487.2890625 660 375.2890625 614 364.2890625 520 c 1
294.2890625 520 m 1
 332.2890625 520 l 1
 320.2890625 440 358.2890625 392.030273438 358.2890625 326 c 0
 358.2890625 257 299.2890625 230 253.2890625 230 c 4
 217.2890625 230 171.2890625 259 171.2890625 311 c 0
 171.2890625 380 283.2890625 426 294.2890625 520 c 1
346.7890625 550.310546875 m 1
 327.7890625 517.401367188 l 1
 264.506835938 567.793945312 203.963867188 558.869140625 146.780273438 591.884765625 c 0
 87.0244140625 626.384765625 93.1416015625 690.98046875 116.141601562 730.817382812 c 4
 134.141601562 761.994140625 182.255859375 787.331054688 227.2890625 761.331054688 c 0
 287.044921875 726.831054688 270.8828125 606.836914062 346.7890625 550.310546875 c 1
311.7890625 489.689453125 m 1
 330.7890625 522.598632812 l 1
 394.071289062 472.206054688 454.614257812 481.130859375 511.797851562 448.115234375 c 0
 571.553710938 413.615234375 565.436523438 349.01953125 542.436523438 309.182617188 c 4
 524.436523438 278.005859375 476.321289062 252.668945312 431.288085938 278.668945312 c 0
 371.532226562 313.168945312 387.6953125 433.163085938 311.7890625 489.689453125 c 1
311.7890625 550.310546875 m 1
 330.7890625 517.401367188 l 1
 255.506835938 487.793945312 232.963867188 430.899414062 175.780273438 397.884765625 c 0
 116.024414062 363.384765625 63.1416015625 400.98046875 40.1416015625 440.817382812 c 4
 22.1416015625 471.994140625 24.255859375 526.331054688 69.2890625 552.331054688 c 0
 129.044921875 586.831054688 224.8828125 512.836914062 311.7890625 550.310546875 c 1
346.7890625 489.689453125 m 1
 327.7890625 522.598632812 l 1
 403.071289062 552.206054688 425.614257812 609.100585938 482.797851562 642.115234375 c 0
 542.553710938 676.615234375 595.436523438 639.01953125 618.436523438 599.182617188 c 4
 636.436523438 568.005859375 634.321289062 513.668945312 589.288085938 487.668945312 c 0
 529.532226562 453.168945312 433.6953125 527.163085938 346.7890625 489.689453125 c 1
EndSplineSet
EndChar

StartChar: at
Encoding: 64 64 79
Width: 1100
VWidth: 1155
Flags: HMW
LayerCount: 2
Fore
SplineSet
865 -74 m 1
 781 -172 652 -224 489 -224 c 0
 306 -224 45 -112 45 221 c 1
 230 231 l 1
 230 -71 411 -129 525 -129 c 0
 619 -129 716 -113 806 -15 c 1
 865 -74 l 1
862 520 m 1
 790 210 l 1
 620 210 l 1
 692 520 l 1
 862 520 l 1
673 359 m 0
 673 192.828125 604 65 484 65 c 0
 375 65 324 125.583984375 324 210 c 0
 324 380 409 534 568 534 c 0
 679 534 673 461 673 359 c 0
644 346 m 0
 644 387.927734375 640 458 594 458 c 0
 550 458 495 324 495 220 c 0
 495 173.072265625 500 142 534 142 c 0
 595 142 644 268 644 346 c 0
620 210 m 1
 790 210 l 1
 788 197 775 160 808 160 c 0
 859 160 957 241 957 405 c 1
 1050 401 l 1
 1050 231 942 65 761 65 c 0
 662 65 607 148 620 210 c 1
957 405 m 1
 957 612 806 712 622 712 c 0
 408 712 230 503 230 231 c 1
 45 221 l 5
 45 554 292 800 605 800 c 0
 898 800 1050 624 1050 401 c 1
 957 405 l 1
EndSplineSet
EndChar

StartChar: dollar
Encoding: 36 36 80
Width: 733
Flags: HMW
LayerCount: 2
Back
SplineSet
459 835 m 5
 529 835 l 5
 269 -85 l 5
 199 -85 l 5
 459 835 l 5
124 130 m 5
 35 176 l 5
 35 224 70 252 99 252 c 4
 126 252 156 231 156 194 c 4
 156 158 124 153 124 130 c 5
574 635 m 5
 663 579 l 5
 663 531 628 513 599 513 c 4
 572 513 542 534 542 571 c 4
 542 607 574 612 574 635 c 5
35 176 m 5
 124 130 l 5
 124 101 155 42 299 42 c 4
 435 42 509 121 509 190 c 5
 599 205 l 5
 599 65 480 -10 299 -10 c 4
 103 -10 35 86 35 176 c 5
169 565 m 5
 259 575 l 5
 259 405 599 455 599 205 c 5
 509 190 l 5
 509 390 169 325 169 565 c 5
663 579 m 5
 574 635 l 5
 574 664 543 709 449 709 c 4
 343 709 259 664 259 575 c 5
 169 565 l 5
 169 685 298 760 439 760 c 4
 565 760 663 699 663 579 c 5
EndSplineSet
Fore
SplineSet
97 528 m 1
 274 570 l 1
 274 429 674 485 674 225 c 1
 494 190 l 1
 494 341 97 278 97 528 c 1
449 835 m 5
 539 835 l 1
 279 -85 l 1
 189 -85 l 5
 449 835 l 5
144 130 m 1
 0 196 l 1
 0 264 50 307 99 307 c 0
 146 307 191 281 191 224 c 0
 191 158 144 160 144 130 c 1
569 645 m 1
 718 579 l 1
 718 511 668 478 619 478 c 0
 572 478 527 504 527 561 c 0
 527 607 569 622 569 645 c 1
0 196 m 1
 144 130 l 1
 144 101 155 57 299 57 c 0
 435 57 494 121 494 190 c 1
 674 225 l 1
 674 75 480 -20 299 -20 c 4
 53 -20 0 106 0 196 c 1
718 579 m 1
 569 645 l 1
 569 674 543 694 449 694 c 0
 343 694 274 659 274 570 c 1
 97 528 l 1
 97 698 298 770 439 770 c 0
 565 770 718 719 718 579 c 1
EndSplineSet
EndChar

StartChar: numbersign
Encoding: 35 35 81
Width: 660
Flags: HMW
LayerCount: 2
Fore
SplineSet
-30 305 m 5
 620 305 l 5
 620 220 l 1
 -30 220 l 1
 -30 305 l 5
40 545 m 1
 690 545 l 1
 690 460 l 1
 40 460 l 1
 40 545 l 1
503 805 m 1
 590 805 l 1
 350 -55 l 1
 263 -55 l 1
 503 805 l 1
295 805 m 1
 382 805 l 1
 142 -55 l 1
 55 -55 l 1
 295 805 l 1
EndSplineSet
EndChar

StartChar: slash
Encoding: 47 47 82
Width: 520
Flags: HMW
LayerCount: 2
Fore
SplineSet
441 780 m 1
 550 780 l 1
 64 -150 l 5
 -50 -150 l 1
 441 780 l 1
EndSplineSet
EndChar

StartChar: percent
Encoding: 37 37 83
Width: 1050
Flags: HMW
LayerCount: 2
Back
SplineSet
625 140 m 4
 625 78 639 40 683 40 c 4
 777 40 835 158 835 280 c 4
 835 342 821 380 777 380 c 4
 683 380 625 262 625 140 c 4
520 160 m 4
 520 323 647 430 780 430 c 4
 863 430 940 383 940 260 c 4
 940 97 793 -10 680 -10 c 4
 597 -10 520 37 520 160 c 4
776 750 m 5
 850 750 l 5
 239 0 l 5
 160 0 l 5
 776 750 l 5
175 470 m 4
 175 408 189 370 233 370 c 4
 327 370 385 488 385 610 c 4
 385 672 371 710 327 710 c 4
 233 710 175 592 175 470 c 4
70 490 m 4
 70 653 197 760 330 760 c 4
 413 760 490 713 490 590 c 4
 490 427 343 320 230 320 c 4
 147 320 70 367 70 490 c 4
EndSplineSet
Fore
SplineSet
710 150 m 4
 710 88 714 45 743 45 c 4
 787 45 830 148 830 270 c 4
 830 332 826 375 797 375 c 4
 753 375 710 252 710 150 c 4
545 160 m 4
 545 343 677 440 820 440 c 4
 903 440 995 383 995 260 c 4
 995 97 853 -20 720 -20 c 4
 627 -20 545 37 545 160 c 4
796 750 m 5
 890 750 l 5
 259 0 l 5
 160 0 l 5
 796 750 l 5
220 480 m 4
 220 418 224 375 253 375 c 4
 297 375 340 478 340 600 c 4
 340 662 336 705 307 705 c 4
 263 705 220 582 220 480 c 4
55 490 m 4
 55 673 187 770 330 770 c 4
 413 770 505 713 505 590 c 4
 505 427 363 310 230 310 c 4
 137 310 55 367 55 490 c 4
EndSplineSet
EndChar

StartChar: hyphen
Encoding: 45 45 85
Width: 460
Flags: HMW
LayerCount: 2
Fore
SplineSet
70 435 m 5
 410 435 l 5
 410 340 l 1
 70 340 l 1
 70 435 l 5
EndSplineSet
EndChar

StartChar: plus
Encoding: 43 43 87
Width: 530
Flags: HMW
LayerCount: 2
Fore
SplineSet
166 110 m 1
 266 520 l 1
 364 520 l 5
 264 110 l 5
 166 110 l 1
60 363 m 1
 470 363 l 1
 470 268 l 1
 60 268 l 1
 60 363 l 1
EndSplineSet
EndChar

StartChar: less
Encoding: 60 60 89
Width: 560
Flags: HMW
LayerCount: 2
Back
SplineSet
55 365 m 5
 70 430 l 5
 549 600 l 5
 534 535 l 5
 55 365 l 5
50 345 m 5
 65 410 l 5
 466 240 l 5
 451 175 l 5
 50 345 l 5
EndSplineSet
Fore
SplineSet
60 353 m 1
 60 455 l 1
 550 600 l 1
 550 493 l 1
 60 353 l 1
60 315 m 5
 60 428 l 5
 450 292 l 1
 450 175 l 1
 60 315 l 5
EndSplineSet
EndChar

StartChar: backslash
Encoding: 92 92 91
Width: 520
Flags: HMW
LayerCount: 2
Fore
SplineSet
234 780 m 1
 420 -150 l 1
 301 -150 l 5
 120 780 l 1
 234 780 l 1
EndSplineSet
EndChar

StartChar: bracketleft
Encoding: 91 91 92
Width: 365
Flags: HMW
LayerCount: 2
Fore
SplineSet
255 -150 m 5
 -55 -150 l 1
 -35 -45 l 1
 255 -45 l 5
 255 -150 l 5
425 675 m 1
 145 675 l 1
 145 780 l 1
 425 780 l 1
 425 675 l 1
315 780 m 1
 115 -150 l 1
 -55 -150 l 1
 145 780 l 1
 315 780 l 1
EndSplineSet
EndChar

StartChar: braceleft
Encoding: 123 123 93
Width: 312
VWidth: 1155
Flags: HMW
LayerCount: 2
Back
SplineSet
322 780 m 5
 322 733 l 5
 260 733 198 700 198 647 c 4
 198 581 222 571 222 471 c 4
 222 358 159 310 45 290 c 5
 45 340 l 5
 75 350 131 365 131 406 c 4
 131 469 105 494 105 601 c 4
 105 690 157 780 322 780 c 5
152 -150 m 5
 7 -150 -35 -109 -35 -10 c 4
 -35 107 85 172 85 235 c 4
 85 276 75 280 45 290 c 5
 45 340 l 5
 119 320 152 303 152 220 c 4
 152 120 58 50 58 -16 c 4
 58 -79 90 -103 152 -103 c 5
 152 -150 l 5
EndSplineSet
Fore
SplineSet
402 780 m 1
 402 693 l 1
 340 693 268 685 268 622 c 4
 268 556 282 571 282 471 c 0
 282 358 159 300 45 280 c 1
 45 360 l 1
 75 370 131 385 131 426 c 0
 131 489 105 494 105 601 c 0
 105 710 207 780 402 780 c 1
232 -150 m 1
 87 -150 -35 -129 -35 -10 c 0
 -35 107 85 152 85 215 c 0
 85 256 75 260 45 270 c 1
 45 350 l 1
 119 330 212 303 212 220 c 0
 212 120 138 90 138 24 c 0
 138 -39 170 -63 232 -63 c 1
 232 -150 l 1
EndSplineSet
EndChar

StartChar: bar
Encoding: 124 124 96
Width: 300
VWidth: 1155
Flags: HMW
LayerCount: 2
Fore
SplineSet
180 780 m 5
 290 780 l 1
 50 -250 l 1
 -60 -250 l 5
 180 780 l 5
EndSplineSet
EndChar

StartChar: cent
Encoding: 162 162 98
Width: 620
VWidth: 1155
Flags: HMW
LayerCount: 2
Fore
SplineSet
355.25390625 615 m 5
 420.25390625 615 l 5
 240.25390625 -85 l 5
 175.25390625 -85 l 5
 355.25390625 615 l 5
EndSplineSet
Refer: 40 99 N 1 0 0 1 0 0 2
EndChar

StartChar: sterling
Encoding: 163 163 99
Width: 650
VWidth: 1155
Flags: HMW
LayerCount: 2
Fore
SplineSet
560.63671875 197 m 1
 527.161132812 52 444.920898438 -40 335.920898438 -40 c 0
 218.920898438 -40 191.236328125 35 118.236328125 35 c 0
 57.236328125 35 21.46484375 10 4.5390625 -20 c 1
 -69.4609375 -20 l 1
 -32.376953125 54 140.7109375 167 233.7109375 167 c 0
 313.7109375 167 321.244140625 113 387.244140625 113 c 0
 430.244140625 113 481.631835938 145 493.63671875 197 c 1
 560.63671875 197 l 1
459.348632812 395 m 1
 437.416015625 300 l 1
 -52.583984375 300 l 1
 -30.6513671875 395 l 1
 459.348632812 395 l 1
519.52734375 647 m 5
 657.290039062 581 l 5
 641.591796875 513 587.818359375 475 538.818359375 475 c 4
 491.818359375 475 449.975585938 506 463.134765625 563 c 4
 473.754882812 609 514.217773438 624 519.52734375 647 c 5
657.290039062 581 m 5
 519.52734375 647 l 5
 525.760742188 674 511.147460938 693 437.147460938 693 c 0
 358.147460938 693 298.526367188 634 281.442382812 560 c 1
 88.1337890625 550 l 1
 120.455078125 690 255.079101562 775 456.079101562 775 c 0
 638.079101562 775 678.530273438 673 657.290039062 581 c 5
88.1337890625 550 m 1
 281.442382812 560 l 1
 258.5859375 461 319.348632812 395 302.034179688 320 c 0
 260.477539062 140 34.2490234375 165 -25.4609375 -20 c 1
 -69.4609375 -20 l 1
 -56.37109375 119 107.63671875 197 122.412109375 261 c 0
 148.731445312 375 61.583984375 435 88.1337890625 550 c 1
EndSplineSet
EndChar

StartChar: section
Encoding: 167 167 101
Width: 574
VWidth: 1155
Flags: HMW
LayerCount: 2
Fore
SplineSet
474.208007812 142 m 1
 310.205078125 116 l 1
 336.986328125 232 -10.6318359375 212 27 375 c 0
 43.6220703125 447 113.85546875 474 176.166992188 510 c 1
 257.858398438 500 l 1
 228.779296875 478 199.622070312 447 192.696289062 417 c 0
 162.453125 286 516.225585938 324 474.208007812 142 c 1
72.6640625 92 m 1
 -45.7158203125 138 l 1
 -30.0166015625 206 32.6015625 239 71.6015625 239 c 0
 118.6015625 239 150.291015625 203 139.439453125 156 c 0
 131.12890625 120 77.974609375 115 72.6640625 92 c 1
-45.7158203125 138 m 1
 72.6640625 92 l 1
 66.662109375 66 136.353515625 56 188.353515625 56 c 0
 251.353515625 56 299.354492188 69 310.205078125 116 c 1
 474.208007812 142 l 1
 445.580078125 18 276.806640625 -20 181.806640625 -20 c 0
 73.806640625 -20 -74.8046875 12 -45.7158203125 138 c 1
80.7919921875 608 m 1
 244.794921875 634 l 1
 218.013671875 518 565.631835938 538 528 375 c 0
 515.995117188 323 461.14453125 276 398.833007812 240 c 1
 287.141601562 250 l 1
 316.220703125 272 345.377929688 303 352.303710938 333 c 4
 382.546875 464 38.7744140625 426 80.7919921875 608 c 1
432.3359375 658 m 1
 570.715820312 612 l 1
 555.016601562 544 503.552734375 516 464.552734375 516 c 0
 427.552734375 516 374.708984375 547 385.560546875 594 c 0
 393.87109375 630 427.025390625 635 432.3359375 658 c 1
570.715820312 612 m 1
 432.3359375 658 l 1
 438.337890625 684 398.646484375 694 346.646484375 694 c 0
 293.646484375 694 253.336914062 671 244.794921875 634 c 1
 80.7919921875 608 l 1
 104.802734375 712 258.193359375 770 353.193359375 770 c 0
 481.193359375 770 597.49609375 728 570.715820312 612 c 1
EndSplineSet
EndChar

StartChar: brokenbar
Encoding: 166 166 102
Width: 300
VWidth: 1155
Flags: HMW
LayerCount: 2
Fore
SplineSet
37 166 m 5
 147 166 l 1
 50 -250 l 1
 -60 -250 l 5
 37 166 l 5
180 780 m 5
 290 780 l 1
 203 409.000976562 l 1
 93 409.000976562 l 5
 180 780 l 5
EndSplineSet
EndChar

StartChar: asciitilde
Encoding: 126 126 104
Width: 688
VWidth: 1155
Flags: HMW
LayerCount: 2
Back
SplineSet
243 437 m 4
 180 437 137 385 137 343 c 5
 80 343 l 5
 90 438 170 510 269 510 c 4
 369 510 369 416 445 416 c 4
 508 416 551 468 551 510 c 5
 608 510 l 5
 598 415 518 343 419 343 c 4
 302 343 306 437 243 437 c 4
EndSplineSet
Fore
SplineSet
243 417 m 0
 180 417 157 385 147 343 c 1
 70 343 l 1
 80 438 170 530 269 530 c 0
 389 530 369 436 445 436 c 0
 488 436 531 468 541 510 c 1
 618 510 l 1
 608 415 538 323 419 323 c 4
 302 323 326 417 243 417 c 0
EndSplineSet
EndChar

StartChar: copyright
Encoding: 169 169 105
Width: 870
Flags: HMW
LayerCount: 2
Back
SplineSet
27 375 m 4
 76.1748046875 588 293.883789062 760 510.883789062 760 c 4
 727.883789062 760 866.174804688 588 817 375 c 4
 767.825195312 162 550.116210938 -10 333.116210938 -10 c 4
 116.116210938 -10 -22.1748046875 162 27 375 c 4
87 375 m 4
 44.2890625 190 159.428710938 39 344.428710938 39 c 4
 529.428710938 39 714.2890625 190 757 375 c 4
 799.7109375 560 684.571289062 711 499.571289062 711 c 4
 314.571289062 711 129.7109375 560 87 375 c 4
EndSplineSet
Fore
SplineSet
20 285 m 0
 20 538 248 760 515 760 c 0
 692 760 830 638 830 465 c 0
 830 202 602 -10 335 -10 c 0
 158 -10 20 112 20 285 c 0
75 285 m 0
 75 140 200 39 335 39 c 0
 570 39 775 220 775 465 c 0
 775 610 660 711 515 711 c 0
 280 711 75 520 75 285 c 0
EndSplineSet
Refer: 14 67 S 0.6 0 0 0.6 162 150 2
EndChar

StartChar: registered
Encoding: 174 174 106
Width: 870
Flags: HMW
LayerCount: 2
Fore
SplineSet
20 285 m 0
 20 538 248 760 515 760 c 0
 692 760 830 638 830 465 c 0
 830 202 602 -10 335 -10 c 0
 158 -10 20 112 20 285 c 0
75 285 m 0
 75 140 200 39 335 39 c 0
 570 39 775 220 775 465 c 0
 775 610 660 711 515 711 c 0
 280 711 75 520 75 285 c 0
EndSplineSet
Refer: 29 82 S 0.6 0 0 0.6 168 148 2
EndChar

StartChar: guillemotleft
Encoding: 171 171 108
Width: 695
Flags: HMW
LayerCount: 2
Fore
SplineSet
450.900390625 387.5 m 1
 609.403320312 200 l 5
 559.014648438 145 l 1
 282.114257812 375 l 1
 287.885742188 400 l 1
 670.985351562 630 l 1
 700.596679688 575 l 1
 450.900390625 387.5 l 1
170.900390625 387.5 m 1
 329.403320312 200 l 1
 279.014648438 145 l 1
 2.1142578125 375 l 1
 7.8857421875 400 l 1
 390.985351562 630 l 1
 420.596679688 575 l 1
 170.900390625 387.5 l 1
EndSplineSet
EndChar

StartChar: mu
Encoding: 181 181 111
Width: 826
VWidth: 1155
Flags: HMW
LayerCount: 2
Fore
SplineSet
171 -103 m 4
 214 -103 247 -117 247 -161 c 4
 247 -206 194 -260 146 -260 c 5
 117 -142 l 5
 137 -142 146 -103 171 -103 c 4
30 -102 m 5
 167 321 l 5
 227 321 l 5
 90 -99 l 5
 30 -102 l 5
30 -102 m 5
 90 -99 l 5
 80 -136 104 -142 117 -142 c 5
 146 -260 l 5
 44 -260 10 -191 30 -102 c 5
EndSplineSet
Refer: 58 117 N 1 0 0 1 0 0 2
EndChar

StartChar: asciicircum
Encoding: 94 94 113
Width: 545
Flags: HMW
LayerCount: 2
Back
SplineSet
329 770 m 5
 323 743 l 5
 258 743 l 5
 264 770 l 5
 329 770 l 5
250 750 m 5
 329 770 l 5
 475 580 l 5
 436 560 l 5
 250 750 l 5
264 770 m 5
 335 750 l 5
 61 560 l 5
 30 580 l 5
 264 770 l 5
EndSplineSet
Fore
SplineSet
425 770 m 1
 425 723 l 1
 320 723 l 1
 320 770 l 1
 425 770 l 1
310 733 m 1
 425 770 l 1
 565 590 l 5
 510 550 l 1
 310 733 l 1
320 770 m 1
 435 727 l 1
 155 550 l 1
 100 590 l 1
 320 770 l 1
EndSplineSet
EndChar

StartChar: degree
Encoding: 176 176 115
Width: 320
Flags: HMW
LayerCount: 2
Fore
SplineSet
105 680 m 0
 105 650 130 625 160 625 c 0
 190 625 215 650 215 680 c 0
 215 710 190 735 160 735 c 0
 130 735 105 710 105 680 c 0
40 680 m 0
 40 746 94 800 160 800 c 0
 226 800 280 746 280 680 c 0
 280 614 226 560 160 560 c 0
 94 560 40 614 40 680 c 0
EndSplineSet
EndChar

StartChar: onequarter
Encoding: 188 188 119
Width: 1000
Flags: HMW
LayerCount: 2
Fore
SplineSet
681 750 m 1
 765 750 l 1
 324 0 l 5
 235 0 l 1
 681 750 l 1
EndSplineSet
Refer: 6 52 N 0.6 0 0 0.6 535 32 2
Refer: 3 49 N 0.6 0 0 0.6 107 456 2
EndChar

StartChar: onehalf
Encoding: 189 189 120
Width: 1000
Flags: HMW
LayerCount: 2
Fore
SplineSet
681 750 m 1
 765 750 l 1
 324 0 l 5
 235 0 l 1
 681 750 l 1
EndSplineSet
Refer: 4 50 N 0.6 0 0 0.6 576 17 2
Refer: 3 49 N 0.6 0 0 0.6 107 456 2
EndChar

StartChar: threequarters
Encoding: 190 190 121
Width: 1000
Flags: HMW
LayerCount: 2
Fore
SplineSet
681 750 m 5
 765 750 l 1
 324 0 l 1
 235 0 l 1
 681 750 l 5
EndSplineSet
Refer: 6 52 N 0.6 0 0 0.6 535 32 2
Refer: 5 51 N 0.6 0 0 0.6 65 457 2
EndChar

StartChar: grave
Encoding: 96 96 123
Width: 395
Flags: HMW
LayerCount: 2
Fore
SplineSet
210 690 m 6
 171.0546875 689.134765625 135 716 135 755 c 4
 135 794 176.610620884 835.397673752 220 818 c 6
 427 735 l 5
 425 695 l 5
 210 690 l 6
EndSplineSet
EndChar

StartChar: acute
Encoding: 180 180 124
Width: 395
Flags: HMW
LayerCount: 2
Fore
SplineSet
265 705 m 2
 50 710 l 1
 48 750 l 1
 255 833 l 2
 298.389648438 850.397460938 340 809 340 770 c 0
 340 731 303.9453125 704.134765625 265 705 c 2
EndSplineSet
EndChar

StartChar: multiply
Encoding: 215 215 127
Width: 530
Flags: HMW
LayerCount: 2
Fore
SplineSet
375.864257812 135.951171875 m 1
 135.951171875 425.865234375 l 1
 204.134765625 494.048828125 l 1
 444.048828125 204.134765625 l 1
 375.864257812 135.951171875 l 1
85.244140625 204.841796875 m 1
 425.157226562 494.755859375 l 1
 494.048828125 425.865234375 l 5
 154.134765625 135.951171875 l 5
 85.244140625 204.841796875 l 1
EndSplineSet
EndChar

StartChar: cedilla
Encoding: 184 184 128
Width: 550
Flags: HMW
LayerCount: 2
Fore
SplineSet
77 -99.01171875 m 1
 187 40.98828125 l 1
 297 40.98828125 l 1
 187 -99.01171875 l 1
 77 -99.01171875 l 1
77 -99.01171875 m 1
 137 -60 l 1
 268 -60 360 -90 360 -140 c 5
 249 -150 l 1
 249 -116.76171875 202 -99.01171875 77 -99.01171875 c 1
101 -198 m 1
 210 -208 249 -174 249 -150 c 1
 360 -140 l 5
 360 -190 292 -250 101 -240 c 1
 101 -198 l 1
EndSplineSet
EndChar

StartChar: AE
Encoding: 198 198 526
Width: 1197
Flags: HMW
LayerCount: 2
Fore
SplineSet
250 295 m 5
 640 295 l 5
 640 200 l 1
 250 200 l 1
 250 295 l 5
-70 105 m 1
 260 105 l 1
 260 0 l 1
 -70 0 l 1
 -70 105 l 1
696 750 m 1
 815 750 l 1
 79 0 l 1
 -45 0 l 1
 696 750 l 1
EndSplineSet
Refer: 16 69 N 1 0 0 1 460 0 2
EndChar

StartChar: ae
Encoding: 230 230 529
Width: 945
VWidth: 1155
Flags: HMW
LayerCount: 2
Back
SplineSet
361 250 m 5
 462 270 l 5
 462 146 497 39 606 39 c 4
 689 39 743 93 768 173 c 5
 819 173 l 5
 793 66 725 -10 594 -10 c 4
 443 -10 361 110 361 250 c 5
438 304 m 5
 762 304 l 5
 762 261 l 5
 438 261 l 5
 438 304 l 5
807 261 m 5
 762 261 l 5
 762 290 l 5
 807 290 l 5
 807 261 l 5
818 261 m 5
 726 261 l 5
 726 364 700 486 601 486 c 4
 492 486 462 374 462 270 c 5
 361 250 l 5
 361 410 440 530 601 530 c 4
 770 530 818 400 818 261 c 5
299 299 m 5
 299 261 l 5
 183 261 142 215 142 138 c 4
 142 71 190 46 240 46 c 4
 308 46 361 79 361 250 c 5
 395 179 l 5
 395 55 326 -10 195 -10 c 4
 106 -10 40 39 40 123 c 4
 40 217 127 299 299 299 c 5
451 367 m 5
 451 271 l 5
 361 273 l 5
 361 377 l 5
 451 367 l 5
70 403 m 5
 70 480 162 530 283 530 c 4
 423 530 451 448 451 367 c 5
 361 367 l 5
 361 434 338 484 258 484 c 4
 204 484 156 465 156 445 c 5
 70 403 l 5
299 299 m 5
 413 299 l 5
 413 261 l 5
 299 261 l 5
 299 299 l 5
184 393 m 4
 184 359 163 340 129 340 c 4
 98 340 70 359 70 403 c 5
 156 445 l 5
 156 427 184 432 184 393 c 4
EndSplineSet
Fore
SplineSet
482 330 m 0
 482 172 373 -20 202 -20 c 0
 93 -20 10 40 10 180 c 0
 10 410 173 539 312 539 c 0
 433 539 482 452 482 330 c 0
418 320 m 0
 418 404 388 445 337 445 c 0
 263 445 190 334 190 190 c 0
 190 116 210 74 257 74 c 0
 338 74 418 206 418 320 c 0
925 422 m 1
 925 242 597 212 486 212 c 0
 425.071289062 212 484 276 484 276 c 1
 623 276 754 329 754 433 c 1
 925 422 l 1
425 180 m 5
 545 170 l 1
 545 116 563 69 622 69 c 0
 675 69 754 118 783 173 c 1
 881 173 l 1
 835 78 742 -20 571 -20 c 0
 470.966422632 -20 403.586893959 20.8175608693 377.3215455 97.9999818084 c 1
 377.3215455 97.9999818084 425 149.26953125 425 180 c 5
925 422 m 1
 754 433 l 1
 754 452 747 462 722 462 c 0
 653 462 545 354 545 170 c 1
 425 180 l 5
 425 274.6171875 441.999996159 410.992992475 441.999996159 410.992992475 c 5
 500.768470014 494.958237782 618.687108597 540 737 540 c 0
 859 540 925 504 925 422 c 1
EndSplineSet
EndChar

StartChar: perthousand
Encoding: 8240 8240 537
Width: 1540
Flags: HMW
LayerCount: 2
Fore
SplineSet
1200 150 m 4
 1200 88 1204 45 1233 45 c 4
 1277 45 1320 148 1320 270 c 4
 1320 332 1316 375 1287 375 c 4
 1243 375 1200 252 1200 150 c 4
1035 160 m 4
 1035 343 1167 440 1310 440 c 4
 1393 440 1485 383 1485 260 c 4
 1485 97 1343 -20 1210 -20 c 4
 1117 -20 1035 37 1035 160 c 4
710 150 m 4
 710 88 714 45 743 45 c 4
 787 45 830 148 830 270 c 4
 830 332 826 375 797 375 c 4
 753 375 710 252 710 150 c 4
545 160 m 4
 545 343 677 440 820 440 c 4
 903 440 995 383 995 260 c 4
 995 97 853 -20 720 -20 c 4
 627 -20 545 37 545 160 c 4
796 750 m 5
 890 750 l 5
 259 0 l 5
 160 0 l 5
 796 750 l 5
220 480 m 4
 220 418 224 375 253 375 c 4
 297 375 340 478 340 600 c 4
 340 662 336 705 307 705 c 4
 263 705 220 582 220 480 c 4
55 490 m 4
 55 673 187 770 330 770 c 4
 413 770 505 713 505 590 c 4
 505 427 363 310 230 310 c 4
 137 310 55 367 55 490 c 4
EndSplineSet
EndChar

StartChar: uni2031
Encoding: 8241 8241 538
Width: 2030
Flags: HMW
LayerCount: 2
Fore
SplineSet
1690 150 m 4
 1690 88 1694 45 1723 45 c 4
 1767 45 1810 148 1810 270 c 4
 1810 332 1806 375 1777 375 c 4
 1733 375 1690 252 1690 150 c 4
1525 160 m 4
 1525 343 1657 440 1800 440 c 4
 1883 440 1975 383 1975 260 c 4
 1975 97 1833 -20 1700 -20 c 4
 1607 -20 1525 37 1525 160 c 4
1200 150 m 0
 1200 88 1204 45 1233 45 c 0
 1277 45 1320 148 1320 270 c 0
 1320 332 1316 375 1287 375 c 0
 1243 375 1200 252 1200 150 c 0
1035 160 m 0
 1035 343 1167 440 1310 440 c 0
 1393 440 1485 383 1485 260 c 0
 1485 97 1343 -20 1210 -20 c 0
 1117 -20 1035 37 1035 160 c 0
710 150 m 0
 710 88 714 45 743 45 c 0
 787 45 830 148 830 270 c 0
 830 332 826 375 797 375 c 0
 753 375 710 252 710 150 c 0
545 160 m 0
 545 343 677 440 820 440 c 0
 903 440 995 383 995 260 c 0
 995 97 853 -20 720 -20 c 0
 627 -20 545 37 545 160 c 0
796 750 m 1
 890 750 l 1
 259 0 l 1
 160 0 l 1
 796 750 l 1
220 480 m 0
 220 418 224 375 253 375 c 0
 297 375 340 478 340 600 c 0
 340 662 336 705 307 705 c 0
 263 705 220 582 220 480 c 0
55 490 m 0
 55 673 187 770 330 770 c 0
 413 770 505 713 505 590 c 0
 505 427 363 310 230 310 c 0
 137 310 55 367 55 490 c 0
EndSplineSet
EndChar

StartChar: uniFB00
Encoding: 64256 64256 542
Width: 870
VWidth: 1155
Flags: HMW
LayerCount: 2
Back
SplineSet
849 718 m 5
 980 674 l 5
 980 606 931 577 887 577 c 4
 849 577 812 598 812 645 c 4
 812 701 849 706 849 718 c 5
525 572 m 5
 655 550 l 5
 525 -100 l 5
 395 -100 l 5
 525 572 l 5
980 674 m 5
 849 718 l 5
 849 730 826 740 794 740 c 4
 714 740 685 677 655 550 c 5
 525 572 l 5
 555 703 632 800 792 800 c 4
 933 800 980 721 980 674 c 5
480 688 m 5
 611 644 l 5
 611 576 562 547 518 547 c 4
 480 547 443 568 443 615 c 4
 443 671 480 676 480 688 c 5
136 542 m 5
 266 520 l 5
 130 -150 l 5
 0 -150 l 5
 136 542 l 5
611 644 m 5
 480 688 l 5
 480 700 447 710 415 710 c 4
 335 710 296 647 266 520 c 5
 136 542 l 5
 166 673 233 770 413 770 c 4
 564 770 611 691 611 644 c 5
45 520 m 5
 775 520 l 5
 775 455 l 5
 45 455 l 5
 45 520 l 5
EndSplineSet
Fore
SplineSet
896 710 m 1
 1080 664 l 1
 1080 586 1021 547 967 547 c 0
 919 547 872 578 872 635 c 0
 872 671 896 698 896 710 c 1
565 572 m 1
 735 550 l 1
 605 -100 l 5
 435 -100 l 5
 565 572 l 1
1080 664 m 1
 896 710 l 1
 896 716 881 720 864 720 c 0
 804 720 765 677 735 550 c 1
 565 572 l 1
 595 703 702 800 862 800 c 0
 1003 800 1080 731 1080 664 c 1
486 680 m 1
 670 654 l 1
 670 576 611 537 557 537 c 0
 509 537 462 558 462 615 c 0
 462 651 486 668 486 680 c 1
135 542 m 1
 305 520 l 1
 170 -150 l 1
 0 -150 l 1
 135 542 l 1
670 654 m 1
 486 680 l 1
 486 686 461 690 444 690 c 0
 384 690 335 647 305 520 c 1
 135 542 l 1
 165 673 282 770 442 770 c 0
 583 770 670 721 670 654 c 1
45 520 m 1
 855 520 l 1
 855 435 l 1
 45 435 l 1
 45 520 l 1
EndSplineSet
LCarets2: 1 0
Ligature2: "Not your mama's contextual ligatures" f f
EndChar

StartChar: uniFB01
Encoding: 64257 64257 543
Width: 806
VWidth: 1155
Flags: HMW
LayerCount: 2
Back
SplineSet
625 520 m 5
 531 119 l 6
 529.599609375 113.094726562 529 106 529 101 c 4
 529 90 534 82 547 82 c 4
 583 82 609 115 635 176 c 5
 688 163 l 5
 652 43 561 -15 480 -15 c 4
 433 -15 395 8 395 58 c 4
 395 77 398.448242188 94.6845703125 402 110 c 6
 497.076171875 520 l 5
 625 520 l 5
489 718 m 5
 620 674 l 5
 620 606 571 577 527 577 c 4
 489 577 452 598 452 645 c 4
 452 701 489 706 489 718 c 5
145 572 m 5
 275 550 l 5
 130 -150 l 5
 0 -150 l 5
 145 572 l 5
620 674 m 5
 489 718 l 5
 489 730 456 740 424 740 c 4
 344 740 305 677 275 550 c 5
 145 572 l 5
 175 703 252 800 422 800 c 4
 573 800 620 721 620 674 c 5
45 520 m 5
 505 520 l 5
 505 455 l 5
 45 455 l 5
 45 520 l 5
EndSplineSet
Fore
SplineSet
521 705 m 5
 700 674 l 5
 700 596 641 567 587 567 c 4
 539 567 492 588 492 645 c 4
 492 681 521 693 521 705 c 5
145 572 m 5
 315 550 l 5
 170 -150 l 5
 0 -150 l 5
 145 572 l 5
700 674 m 5
 521 705 l 5
 521 716 481 720 464 720 c 4
 404 720 345 677 315 550 c 5
 145 572 l 5
 175 703 282 800 462 800 c 4
 603 800 700 751 700 674 c 5
45 520 m 5
 535 520 l 5
 535 435 l 5
 45 435 l 5
 45 520 l 5
703 520 m 5
 614 134 l 6
 612.599609375 128.094726562 611 119 611 114 c 4
 611 103 615 100 625 100 c 4
 651 100 677 130 713 191 c 5
 786 168 l 5
 730 38 634 -20 543 -20 c 4
 476 -20 437 5 437 65 c 4
 437 84 441.448242188 104.684570312 445 120 c 6
 535.076171875 520 l 5
 703 520 l 5
EndSplineSet
LCarets2: 1 0
Ligature2: "Not your mama's contextual ligatures" f i
EndChar

StartChar: uniFB02
Encoding: 64258 64258 544
Width: 834
VWidth: 1155
Flags: HMW
LayerCount: 2
Back
SplineSet
705 780 m 5
 561 119 l 6
 559.599609375 113.094726562 559 106 559 101 c 4
 559 90 564 82 577 82 c 4
 613 82 639 115 665 176 c 5
 718 163 l 5
 682 43 591 -15 510 -15 c 4
 463 -15 425 8 425 58 c 4
 425 77 428.448242188 94.6845703125 432 110 c 6
 561.076171875 710 l 5
 705 780 l 5
485 718 m 5
 616 674 l 5
 616 606 567 577 523 577 c 4
 485 577 448 598 448 645 c 4
 448 701 485 706 485 718 c 5
141 572 m 5
 271 550 l 5
 130 -150 l 5
 0 -150 l 5
 141 572 l 5
616 674 m 5
 485 718 l 5
 485 730 452 740 420 740 c 4
 340 740 301 677 271 550 c 5
 141 572 l 5
 171 703 238 800 418 800 c 4
 569 800 616 721 616 674 c 5
45 520 m 5
 395 520 l 5
 395 455 l 5
 45 455 l 5
 45 520 l 5
EndSplineSet
Fore
SplineSet
476 710 m 5
 660 664 l 5
 660 586 601 547 547 547 c 4
 499 547 452 578 452 635 c 4
 452 671 476 698 476 710 c 5
145 572 m 5
 315 550 l 5
 170 -150 l 5
 0 -150 l 5
 145 572 l 5
660 664 m 5
 476 710 l 5
 476 716 461 720 444 720 c 4
 384 720 345 677 315 550 c 5
 145 572 l 5
 175 703 282 800 442 800 c 4
 583 800 660 731 660 664 c 5
45 520 m 5
 435 520 l 5
 435 435 l 5
 45 435 l 5
 45 520 l 5
791 800 m 5
 642 134 l 6
 640.599609375 128.094726562 639 119 639 114 c 4
 639 103 643 100 653 100 c 4
 679 100 705 130 741 191 c 5
 814 168 l 5
 758 38 662 -20 571 -20 c 4
 504 -20 465 5 465 65 c 4
 465 84 469.448242188 104.684570312 473 120 c 6
 598.076171875 680 l 5
 791 800 l 5
EndSplineSet
LCarets2: 1 0
Ligature2: "Not your mama's contextual ligatures" f l
EndChar

StartChar: uniFB03
Encoding: 64259 64259 545
Width: 1226
VWidth: 1155
Flags: HMW
LayerCount: 2
Back
SplineSet
1005 520 m 5
 911 119 l 6
 909.599609375 113.094726562 909 106 909 101 c 4
 909 90 914 82 927 82 c 4
 963 82 989 115 1015 176 c 5
 1068 163 l 5
 1032 43 941 -15 860 -15 c 4
 813 -15 775 8 775 58 c 4
 775 77 778.448242188 94.6845703125 782 110 c 6
 877.076171875 520 l 5
 1005 520 l 5
869 718 m 5
 1000 674 l 5
 1000 606 951 577 907 577 c 4
 869 577 832 598 832 645 c 4
 832 701 869 706 869 718 c 5
525 572 m 5
 655 550 l 5
 520 -100 l 5
 390 -100 l 5
 525 572 l 5
1000 674 m 5
 869 718 l 5
 869 730 836 740 804 740 c 4
 724 740 685 677 655 550 c 5
 525 572 l 5
 555 703 632 800 802 800 c 4
 953 800 1000 721 1000 674 c 5
480 688 m 5
 611 644 l 5
 611 576 562 547 518 547 c 4
 480 547 443 568 443 615 c 4
 443 671 480 676 480 688 c 5
136 542 m 5
 266 520 l 5
 130 -150 l 5
 0 -150 l 5
 136 542 l 5
611 644 m 5
 480 688 l 5
 480 700 447 710 415 710 c 4
 335 710 296 647 266 520 c 5
 136 542 l 5
 166 673 233 770 413 770 c 4
 564 770 611 691 611 644 c 5
45 520 m 5
 885 520 l 5
 885 455 l 5
 45 455 l 5
 45 520 l 5
EndSplineSet
Fore
SplineSet
486 680 m 5
 670 654 l 5
 670 576 611 537 557 537 c 4
 509 537 462 558 462 615 c 4
 462 651 486 668 486 680 c 5
135 542 m 1
 305 520 l 1
 170 -150 l 1
 0 -150 l 1
 135 542 l 1
670 654 m 1
 486 680 l 1
 486 686 461 690 444 690 c 0
 384 690 335 647 305 520 c 1
 135 542 l 1
 165 673 282 770 442 770 c 0
 583 770 670 721 670 654 c 1
45 520 m 1
 955 520 l 1
 955 435 l 1
 45 435 l 1
 45 520 l 1
941 705 m 1
 1120 674 l 1
 1120 596 1061 567 1007 567 c 0
 959 567 912 588 912 645 c 0
 912 681 941 693 941 705 c 1
565 572 m 1
 735 550 l 1
 605 -100 l 1
 435 -100 l 1
 565 572 l 1
1120 674 m 1
 941 705 l 1
 941 716 901 720 884 720 c 0
 824 720 765 677 735 550 c 1
 565 572 l 1
 595 703 702 800 882 800 c 0
 1023 800 1120 751 1120 674 c 1
1123 520 m 1
 1034 134 l 2
 1032.59960938 128.094726562 1031 119 1031 114 c 0
 1031 103 1035 100 1045 100 c 0
 1071 100 1097 130 1133 191 c 1
 1206 168 l 1
 1150 38 1054 -20 963 -20 c 0
 896 -20 857 5 857 65 c 0
 857 84 861.448242188 104.684570312 865 120 c 2
 955.076171875 520 l 1
 1123 520 l 1
EndSplineSet
LCarets2: 2 0 0
Ligature2: "Not your mama's contextual ligatures" f f i
EndChar

StartChar: uniFB04
Encoding: 64260 64260 546
Width: 1254
VWidth: 1155
Flags: HMW
LayerCount: 2
Back
SplineSet
1089 780 m 5
 945 119 l 6
 943.599609375 113.094726562 943 106 943 101 c 4
 943 90 948 82 961 82 c 4
 997 82 1023 115 1049 176 c 5
 1102 163 l 5
 1066 43 975 -15 894 -15 c 4
 847 -15 809 8 809 58 c 4
 809 77 812.448242188 94.6845703125 816 110 c 6
 945.076171875 710 l 5
 1089 780 l 5
869 718 m 5
 1000 674 l 5
 1000 606 951 577 907 577 c 4
 869 577 832 598 832 645 c 4
 832 701 869 706 869 718 c 5
1000 674 m 5
 869 718 l 5
 869 730 836 740 804 740 c 4
 724 740 685 677 655 550 c 5
 525 572 l 5
 555 703 622 800 802 800 c 4
 953 800 1000 721 1000 674 c 5
525 572 m 5
 655 550 l 5
 520 -100 l 5
 390 -100 l 5
 525 572 l 5
480 688 m 5
 611 644 l 5
 611 576 562 547 518 547 c 4
 480 547 443 568 443 615 c 4
 443 671 480 676 480 688 c 5
136 542 m 5
 266 520 l 5
 130 -150 l 5
 0 -150 l 5
 136 542 l 5
611 644 m 5
 480 688 l 5
 480 700 447 710 415 710 c 4
 335 710 296 647 266 520 c 5
 136 542 l 5
 166 673 233 770 413 770 c 4
 564 770 611 691 611 644 c 5
45 520 m 5
 785 520 l 5
 785 455 l 5
 45 455 l 5
 45 520 l 5
EndSplineSet
Fore
SplineSet
486 680 m 5
 670 654 l 5
 670 576 611 537 557 537 c 4
 509 537 462 558 462 615 c 4
 462 651 486 668 486 680 c 5
135 542 m 1
 305 520 l 1
 170 -150 l 1
 0 -150 l 1
 135 542 l 1
670 654 m 1
 486 680 l 1
 486 686 461 690 444 690 c 0
 384 690 335 647 305 520 c 1
 135 542 l 1
 165 673 282 770 442 770 c 0
 583 770 670 721 670 654 c 1
45 520 m 1
 855 520 l 1
 855 435 l 1
 45 435 l 1
 45 520 l 1
896 710 m 1
 1080 664 l 1
 1080 586 1021 547 967 547 c 0
 919 547 872 578 872 635 c 0
 872 671 896 698 896 710 c 1
565 572 m 1
 735 550 l 1
 605 -100 l 1
 435 -100 l 1
 565 572 l 1
1080 664 m 1
 896 710 l 1
 896 716 881 720 864 720 c 0
 804 720 765 677 735 550 c 1
 565 572 l 1
 595 703 702 800 862 800 c 0
 1003 800 1080 731 1080 664 c 1
1211 800 m 1
 1062 134 l 2
 1060.59960938 128.094726562 1059 119 1059 114 c 0
 1059 103 1063 100 1073 100 c 0
 1099 100 1125 130 1161 191 c 1
 1234 168 l 1
 1178 38 1082 -20 991 -20 c 0
 924 -20 885 5 885 65 c 0
 885 84 889.448242188 104.684570312 893 120 c 2
 1018.07617188 680 l 1
 1211 800 l 1
EndSplineSet
LCarets2: 2 0 0
Ligature2: "Not your mama's contextual ligatures" f f l
EndChar

StartChar: uniFFFD
Encoding: 65533 65533 547
Width: 855
Flags: HMW
LayerCount: 2
Back
SplineSet
717 0 m 29
 622 0 l 6
 538 0 484 28 484 88 c 4
 484 139 509 203 509 255 c 4
 509 306 492 335 427 335 c 5
 467 381 l 5
 602 381 655 323 655 257 c 4
 655 197 628 149 628 109 c 4
 628 88 635 75 658 75 c 6
 717 75 l 5
 717 0 l 29
175 75 m 1
 310 75 l 1
 310 0 l 1
 175 0 l 1
 175 75 l 1
110 750 m 1
 225 750 l 1
 225 675 l 1
 110 675 l 1
 110 750 l 1
-40 75 m 1
 95 75 l 1
 95 0 l 1
 -40 0 l 1
 -40 75 l 1
449 415 m 1
 525 415 619 471 619 580 c 0
 619 639 595 675 519 675 c 1
 519 750 l 1
 690 750 759 690 759 580 c 0
 759 440 640 364 449 364 c 1
 449 415 l 1
317 750 m 1
 519 750 l 1
 519 675 l 1
 317 675 l 1
 317 750 l 1
237 415 m 1
 469 415 l 1
 469 335 l 1
 237 335 l 1
 237 415 l 1
222 750 m 1
 362 750 l 1
 202 0 l 1
 62 0 l 1
 222 750 l 1
EndSplineSet
Fore
SplineSet
767 0 m 25
 642 0 l 2
 528 0 484 28 484 88 c 0
 484 139 509 188 509 240 c 0
 509 291 492 320 427 320 c 1
 467 381 l 1
 602 381 705 343 705 257 c 0
 705 197 678 159 678 139 c 0
 678 118 685 105 708 105 c 2
 767 105 l 1
 767 0 l 25
195 105 m 1
 370 105 l 1
 370 0 l 1
 195 0 l 1
 195 105 l 1
80 750 m 1
 215 750 l 1
 215 645 l 1
 80 645 l 1
 80 750 l 1
-30 105 m 1
 115 105 l 1
 85 0 l 1
 -30 0 l 1
 -30 105 l 1
469 430 m 1
 545 430 619 501 619 580 c 0
 619 619 595 645 539 645 c 1
 539 750 l 1
 720 750 809 700 809 580 c 0
 809 440 660 364 469 364 c 1
 469 430 l 1
337 750 m 1
 539 750 l 1
 539 645 l 1
 337 645 l 1
 337 750 l 1
257 430 m 1
 489 430 l 1
 489 320 l 1
 257 320 l 1
 257 430 l 1
212 750 m 1
 402 750 l 1
 242 0 l 1
 52 0 l 1
 212 750 l 1
EndSplineSet
EndChar

StartChar: uniFFF0
Encoding: 65520 65520 548
Width: 420
VWidth: 1155
Flags: HMW
LayerCount: 2
Back
SplineSet
24.998046875 58 m 5
 158.998046875 101 l 5
 158.998046875 90 163.998046875 82 176.998046875 82 c 4
 212.998046875 82 238.998046875 115 264.998046875 176 c 5
 317.998046875 163 l 5
 281.998046875 43 190.998046875 -15 109.998046875 -15 c 4
 62.998046875 -15 24.998046875 8 24.998046875 58 c 5
30 520 m 5
 375 520 l 5
 375 455 l 5
 30 455 l 5
 30 520 l 5
158.998046875 101 m 5
 24.998046875 58 l 5
 24.998046875 66 25.87890625 77.0283203125 27.998046875 86 c 6
 149.998046875 560 l 5
 215.998046875 560 253.998046875 618 253.998046875 618 c 5
 291.998046875 618 l 5
 162.998046875 129 l 6
 160.049804688 116.994140625 158.998046875 110 158.998046875 101 c 5
EndSplineSet
Fore
SplineSet
10 58 m 1
 184 114 l 1
 184 103 189 95 202 95 c 0
 228 95 253 130 285 191 c 1
 363 173 l 1
 317 53 236 -20 115 -20 c 0
 48 -20 10 8 10 58 c 1
15.001953125 520 m 1
 400.001953125 520 l 1
 400.001953125 435 l 1
 15.001953125 435 l 1
 15.001953125 520 l 1
184 114 m 1
 10 58 l 1
 10 66 10.880859375 77.0283203125 13 86 c 2
 132 520 l 1
 228 520 235 618 235 618 c 5
 313 618 l 1
 188 139 l 2
 185.051757812 126.994140625 184 123 184 114 c 1
EndSplineSet
EndChar

